<svg width="330" height="416" viewBox="0 0 330 416" fill="none" xmlns="http://www.w3.org/2000/svg">
<g clip-path="url(#clip0_93_3147)">
<path d="M207.498 98.8571H205.211V36.2407C205.211 26.6291 201.392 17.4111 194.593 10.6147C187.794 3.81822 178.573 1.2128e-05 168.958 1.1541e-10H36.2528C31.4921 -1.20101e-05 26.7779 0.937369 22.3795 2.75862C17.9811 4.57988 13.9846 7.24934 10.6182 10.6146C7.25185 13.9798 4.58149 17.975 2.75961 22.3719C0.937726 26.7688 9.76157e-06 31.4814 0 36.2406V379.759C-5.25621e-06 384.519 0.937705 389.231 2.75957 393.628C4.58144 398.025 7.25179 402.02 10.6182 405.385C13.9845 408.751 17.981 411.42 22.3794 413.241C26.7778 415.063 31.492 416 36.2527 416H168.958C178.573 416 187.794 412.182 194.593 405.385C201.392 398.589 205.211 389.371 205.211 379.759V143.429H207.498L207.498 98.8571Z" fill="#F1884F"/>
<path d="M170.421 9.42859H153.098C153.895 11.381 154.199 13.4993 153.984 15.5968C153.769 17.6943 153.041 19.7068 151.864 21.4569C150.688 23.2069 149.099 24.6409 147.237 25.6324C145.376 26.624 143.299 27.1427 141.189 27.1429H65.1642C63.0549 27.1427 60.9781 26.624 59.1166 25.6325C57.2551 24.6409 55.6661 23.2069 54.4896 21.4569C53.313 19.7068 52.5851 17.6944 52.3699 15.5968C52.1546 13.4993 52.4587 11.381 53.2553 9.42859H37.0761C29.8959 9.42858 23.0097 12.28 17.9325 17.3555C12.8553 22.431 10.0029 29.3148 10.0029 36.4927V379.507C10.0029 383.061 10.7032 386.581 12.0637 389.864C13.4243 393.148 15.4185 396.131 17.9325 398.645C20.4465 401.158 23.431 403.151 26.7156 404.511C30.0003 405.871 33.5208 406.571 37.0761 406.571H170.421C173.976 406.571 177.497 405.871 180.781 404.511C184.066 403.151 187.05 401.158 189.564 398.645C192.078 396.131 194.073 393.148 195.433 389.864C196.794 386.581 197.494 383.061 197.494 379.507V36.4927C197.494 32.9386 196.794 29.4193 195.433 26.1357C194.073 22.8521 192.078 19.8686 189.564 17.3555C187.05 14.8423 184.066 12.8488 180.781 11.4887C177.497 10.1286 173.976 9.42858 170.421 9.42859Z" fill="#E0F5FF"/>
<path d="M184.589 104.32H22.8439C22.0498 104.319 21.2885 104.003 20.727 103.442C20.1654 102.88 19.8496 102.119 19.8486 101.325V61.2166C19.8496 60.4228 20.1654 59.6617 20.727 59.1004C21.2885 58.539 22.0498 58.2233 22.8439 58.2223H184.589C185.383 58.2233 186.145 58.539 186.706 59.1004C187.268 59.6617 187.584 60.4228 187.585 61.2166V101.325C187.584 102.119 187.268 102.88 186.706 103.442C186.145 104.003 185.383 104.319 184.589 104.32ZM22.8439 59.42C22.3674 59.4205 21.9106 59.61 21.5737 59.9468C21.2368 60.2836 21.0472 60.7403 21.0467 61.2166V101.325C21.0472 101.802 21.2368 102.258 21.5737 102.595C21.9106 102.932 22.3674 103.121 22.8439 103.122H184.589C185.066 103.121 185.523 102.932 185.86 102.595C186.196 102.258 186.386 101.802 186.386 101.325V61.2166C186.386 60.7403 186.196 60.2836 185.86 59.9468C185.523 59.61 185.066 59.4205 184.589 59.42H22.8439Z" fill="#3F3D56"/>
<path d="M184.589 263.017H22.8439C22.0498 263.016 21.2885 262.7 20.727 262.139C20.1654 261.577 19.8496 260.816 19.8486 260.022V185.779C19.8496 184.985 20.1654 184.224 20.727 183.663C21.2885 183.101 22.0498 182.785 22.8439 182.784H184.589C185.383 182.785 186.145 183.101 186.706 183.663C187.268 184.224 187.584 184.985 187.585 185.779V260.022C187.584 260.816 187.268 261.577 186.706 262.139C186.145 262.7 185.383 263.016 184.589 263.017ZM22.8439 183.982C22.3674 183.983 21.9106 184.172 21.5737 184.509C21.2368 184.846 21.0472 185.302 21.0467 185.779V260.022C21.0472 260.499 21.2368 260.955 21.5737 261.292C21.9106 261.629 22.3674 261.818 22.8439 261.819H184.589C185.066 261.818 185.523 261.629 185.86 261.292C186.196 260.955 186.386 260.499 186.387 260.022V185.779C186.386 185.302 186.196 184.846 185.86 184.509C185.523 184.172 185.066 183.983 184.589 183.982L22.8439 183.982Z" fill="#3F3D56"/>
<path d="M183.391 166.601H111.504C110.71 166.6 109.949 166.284 109.387 165.723C108.826 165.161 108.51 164.4 108.509 163.606V123.498C108.51 122.704 108.826 121.943 109.387 121.381C109.949 120.82 110.71 120.504 111.504 120.503H183.391C184.185 120.504 184.946 120.82 185.508 121.381C186.069 121.943 186.385 122.704 186.386 123.498V163.606C186.385 164.4 186.069 165.161 185.508 165.723C184.946 166.284 184.185 166.6 183.391 166.601ZM111.504 121.701C111.028 121.702 110.571 121.891 110.234 122.228C109.897 122.565 109.707 123.021 109.707 123.498V163.606C109.707 164.083 109.897 164.539 110.234 164.876C110.571 165.213 111.028 165.403 111.504 165.403H183.391C183.868 165.403 184.324 165.213 184.661 164.876C184.998 164.539 185.188 164.083 185.188 163.606V123.498C185.188 123.021 184.998 122.565 184.661 122.228C184.324 121.891 183.868 121.702 183.391 121.701L111.504 121.701Z" fill="#E6E6E6"/>
<path d="M94.7309 360.031H22.8439C22.0498 360.03 21.2885 359.715 20.727 359.153C20.1654 358.592 19.8496 357.831 19.8486 357.037V282.195C19.8496 281.401 20.1655 280.64 20.727 280.078C21.2885 279.517 22.0498 279.201 22.8439 279.2H94.7309C95.525 279.201 96.2863 279.517 96.8478 280.078C97.4094 280.64 97.7252 281.401 97.7262 282.195V357.037C97.7252 357.831 97.4094 358.592 96.8478 359.153C96.2863 359.715 95.525 360.03 94.7309 360.031ZM22.8439 280.398C22.3674 280.399 21.9106 280.588 21.5737 280.925C21.2368 281.262 21.0472 281.718 21.0467 282.195V357.037C21.0472 357.513 21.2368 357.97 21.5737 358.307C21.9106 358.644 22.3674 358.833 22.8439 358.834H94.7309C95.2074 358.833 95.6642 358.644 96.0011 358.307C96.3381 357.97 96.5276 357.513 96.5281 357.037V282.195C96.5276 281.718 96.3381 281.262 96.0011 280.925C95.6642 280.588 95.2074 280.399 94.7309 280.398H22.8439Z" fill="#E6E6E6"/>
<path d="M183.391 360.031H111.504C110.71 360.03 109.949 359.715 109.387 359.153C108.826 358.592 108.51 357.831 108.509 357.037V282.195C108.51 281.401 108.826 280.64 109.387 280.078C109.949 279.517 110.71 279.201 111.504 279.2H183.391C184.185 279.201 184.946 279.517 185.508 280.078C186.069 280.64 186.385 281.401 186.386 282.195V357.037C186.385 357.831 186.069 358.592 185.508 359.153C184.946 359.715 184.185 360.03 183.391 360.031ZM111.504 280.398C111.028 280.399 110.571 280.588 110.234 280.925C109.897 281.262 109.707 281.718 109.707 282.195V357.037C109.707 357.513 109.897 357.97 110.234 358.307C110.571 358.644 111.028 358.833 111.504 358.834H183.391C183.868 358.833 184.324 358.644 184.661 358.307C184.998 357.97 185.188 357.513 185.188 357.037V282.195C185.188 281.718 184.998 281.262 184.661 280.925C184.324 280.588 183.868 280.399 183.391 280.398H111.504Z" fill="#E6E6E6"/>
<path d="M46.7774 221.282C53.5159 221.282 58.9786 215.821 58.9786 209.085C58.9786 202.349 53.5159 196.888 46.7774 196.888C40.0388 196.888 34.5762 202.349 34.5762 209.085C34.5762 215.821 40.0388 221.282 46.7774 221.282Z" fill="#2558A3"/>
<path d="M74.9574 200.954C74.418 200.954 73.9008 201.168 73.5194 201.549C73.1381 201.93 72.9238 202.447 72.9238 202.986C72.9238 203.526 73.1381 204.043 73.5194 204.424C73.9008 204.805 74.418 205.019 74.9574 205.019H170.824C171.362 205.018 171.878 204.803 172.259 204.422C172.639 204.041 172.853 203.525 172.853 202.986C172.853 202.448 172.639 201.932 172.259 201.551C171.878 201.17 171.362 200.955 170.824 200.954H74.9574Z" fill="#2558A3"/>
<path d="M74.9568 213.151C74.6897 213.15 74.4252 213.202 74.1782 213.304C73.9313 213.405 73.7068 213.555 73.5176 213.743C73.3284 213.931 73.1781 214.155 73.0754 214.402C72.9727 214.648 72.9195 214.912 72.9189 215.179C72.9184 215.446 72.9704 215.711 73.0721 215.958C73.1738 216.204 73.3231 216.429 73.5115 216.618C73.7 216.807 73.9238 216.957 74.1703 217.06C74.4168 217.163 74.6812 217.216 74.9482 217.216H116.208C116.476 217.217 116.741 217.165 116.988 217.063C117.235 216.961 117.459 216.811 117.649 216.622C117.838 216.433 117.988 216.209 118.09 215.962C118.193 215.715 118.245 215.451 118.245 215.184C118.245 214.916 118.193 214.652 118.09 214.405C117.988 214.158 117.838 213.934 117.649 213.745C117.459 213.556 117.235 213.406 116.988 213.304C116.741 213.202 116.476 213.15 116.208 213.151H74.9568Z" fill="#2558A3"/>
<path d="M37.4189 232.65C35.8721 232.65 34.6133 233.562 34.6133 234.683C34.6133 235.804 35.8721 236.716 37.4189 236.716H169.685C171.232 236.716 172.491 235.804 172.491 234.683C172.491 233.562 171.232 232.65 169.685 232.65H37.4189Z" fill="#CCCCCC"/>
<path d="M37.4189 244.848C35.8721 244.848 34.6133 245.76 34.6133 246.88C34.6133 248.001 35.8721 248.913 37.4189 248.913H169.685C171.232 248.913 172.491 248.001 172.491 246.88C172.491 245.76 171.232 244.848 169.685 244.848H37.4189Z" fill="#CCCCCC"/>
<path d="M47.9766 91.9291C54.7151 91.9291 60.1778 86.4683 60.1778 79.732C60.1778 72.9957 54.7151 67.5349 47.9766 67.5349C41.2381 67.5349 35.7754 72.9957 35.7754 79.732C35.7754 86.4683 41.2381 91.9291 47.9766 91.9291Z" fill="#2558A3"/>
<path d="M76.1557 71.6006C75.6172 71.6019 75.1012 71.8166 74.7209 72.1977C74.3406 72.5788 74.127 73.0951 74.127 73.6334C74.127 74.1718 74.3406 74.6881 74.7209 75.0692C75.1012 75.4503 75.6172 75.665 76.1557 75.6663H172.022C172.289 75.6672 172.554 75.6153 172.801 75.5138C173.049 75.4123 173.273 75.2631 173.463 75.0747C173.652 74.8863 173.803 74.6624 173.906 74.4159C174.008 74.1693 174.062 73.9049 174.062 73.6377C174.063 73.3706 174.011 73.106 173.909 72.859C173.807 72.612 173.657 72.3875 173.469 72.1983C173.28 72.0091 173.056 71.8589 172.809 71.7563C172.563 71.6538 172.298 71.6009 172.031 71.6006C172.028 71.6006 172.025 71.6006 172.022 71.6006H76.1557Z" fill="#2558A3"/>
<path d="M76.1557 83.7977C75.6172 83.799 75.1012 84.0137 74.7209 84.3948C74.3406 84.7759 74.127 85.2922 74.127 85.8306C74.127 86.3689 74.3406 86.8852 74.7209 87.2663C75.1012 87.6474 75.6172 87.8621 76.1557 87.8634H117.407C117.675 87.8643 117.939 87.8125 118.187 87.7109C118.434 87.6094 118.658 87.4602 118.848 87.2718C119.037 87.0834 119.188 86.8595 119.291 86.613C119.394 86.3664 119.447 86.102 119.447 85.8349C119.448 85.5677 119.396 85.3031 119.294 85.0561C119.192 84.8091 119.043 84.5846 118.854 84.3954C118.665 84.2062 118.441 84.056 118.194 83.9535C117.948 83.8509 117.683 83.798 117.416 83.7977C117.413 83.7977 117.41 83.7977 117.407 83.7977H76.1557Z" fill="#2558A3"/>
<path d="M94.6667 166.608H27.2305L43.1004 139.129C43.3849 138.637 43.794 138.228 44.2866 137.943C44.7793 137.659 45.3382 137.509 45.9071 137.509C46.476 137.509 47.0348 137.659 47.5275 137.943C48.0201 138.228 48.4292 138.637 48.7137 139.129L55.4931 150.868L67.0206 130.908C67.3767 130.292 67.8888 129.78 68.5057 129.424C69.1225 129.068 69.8222 128.88 70.5344 128.88C71.2467 128.88 71.9464 129.068 72.5632 129.424C73.18 129.78 73.6922 130.292 74.0483 130.908L94.6667 166.608ZM29.3055 165.41H92.5917L73.0106 131.507C72.7597 131.073 72.3988 130.712 71.9641 130.461C71.5295 130.21 71.0364 130.078 70.5345 130.078C70.0326 130.078 69.5396 130.21 69.1049 130.461C68.6703 130.712 68.3093 131.073 68.0584 131.507L55.4931 153.263L47.6759 139.728C47.4967 139.417 47.2389 139.16 46.9284 138.98C46.6179 138.801 46.2657 138.707 45.9071 138.707C45.5486 138.707 45.1963 138.801 44.8859 138.98C44.5754 139.16 44.3175 139.417 44.1383 139.728L29.3055 165.41Z" fill="#E6E6E6"/>
<path d="M180.931 166.608H113.495L129.365 139.129C129.65 138.637 130.059 138.228 130.551 137.943C131.044 137.659 131.603 137.509 132.172 137.509C132.741 137.509 133.299 137.659 133.792 137.943C134.285 138.228 134.694 138.637 134.978 139.129L141.758 150.868L153.285 130.908C153.641 130.292 154.154 129.78 154.77 129.424C155.387 129.068 156.087 128.88 156.799 128.88C157.511 128.88 158.211 129.068 158.828 129.424C159.445 129.78 159.957 130.292 160.313 130.908L180.931 166.608ZM115.57 165.41H178.856L159.275 131.507C159.024 131.073 158.663 130.712 158.229 130.461C157.794 130.21 157.301 130.078 156.799 130.078C156.297 130.078 155.804 130.21 155.37 130.461C154.935 130.712 154.574 131.073 154.323 131.507L141.758 153.263L133.94 139.728C133.761 139.418 133.503 139.16 133.193 138.98C132.882 138.801 132.53 138.707 132.172 138.707C131.813 138.707 131.461 138.801 131.15 138.98C130.84 139.16 130.582 139.418 130.403 139.728L115.57 165.41Z" fill="#E6E6E6"/>
<path d="M94.7309 166.601H22.8439C22.0498 166.6 21.2885 166.284 20.727 165.723C20.1654 165.161 19.8496 164.4 19.8486 163.606V123.498C19.8496 122.704 20.1654 121.943 20.727 121.381C21.2885 120.82 22.0498 120.504 22.8439 120.503H94.7309C95.525 120.504 96.2863 120.82 96.8479 121.381C97.4094 121.943 97.7253 122.704 97.7262 123.498V163.606C97.7252 164.4 97.4094 165.161 96.8478 165.723C96.2863 166.284 95.525 166.6 94.7309 166.601ZM22.8439 121.701C22.3674 121.702 21.9106 121.891 21.5737 122.228C21.2367 122.565 21.0472 123.021 21.0467 123.498V163.606C21.0472 164.083 21.2367 164.539 21.5737 164.876C21.9106 165.213 22.3674 165.403 22.8439 165.403H94.7309C95.2074 165.403 95.6642 165.213 96.0011 164.876C96.338 164.539 96.5275 164.083 96.5281 163.606V123.498C96.5275 123.021 96.338 122.565 96.0011 122.228C95.6642 121.891 95.2074 121.702 94.7309 121.701L22.8439 121.701Z" fill="#E6E6E6"/>
<path d="M38.162 294.634C37.8946 294.634 37.6298 294.686 37.3827 294.788C37.1356 294.89 36.911 295.04 36.7218 295.229C36.5326 295.417 36.3825 295.642 36.2801 295.888C36.1777 296.135 36.125 296.4 36.125 296.667C36.125 296.934 36.1777 297.199 36.2801 297.446C36.3825 297.693 36.5326 297.917 36.7218 298.106C36.911 298.295 37.1356 298.444 37.3827 298.546C37.6298 298.648 37.8946 298.701 38.162 298.7H79.4136C79.9529 298.7 80.4702 298.486 80.8515 298.105C81.2329 297.723 81.4471 297.206 81.4471 296.667C81.4471 296.128 81.2329 295.611 80.8515 295.23C80.4702 294.849 79.9529 294.634 79.4136 294.634H38.162Z" fill="#E6E6E6"/>
<path d="M38.162 306.611C37.8946 306.611 37.6298 306.663 37.3827 306.765C37.1356 306.867 36.911 307.017 36.7218 307.206C36.5326 307.394 36.3825 307.619 36.2801 307.866C36.1777 308.112 36.125 308.377 36.125 308.644C36.125 308.912 36.1777 309.176 36.2801 309.423C36.3825 309.67 36.5326 309.894 36.7218 310.083C36.911 310.272 37.1356 310.421 37.3827 310.523C37.6298 310.625 37.8946 310.678 38.162 310.677H79.4136C79.9523 310.676 80.4687 310.462 80.8493 310.081C81.2299 309.699 81.4437 309.183 81.4437 308.644C81.4437 308.106 81.2299 307.589 80.8493 307.208C80.4687 306.827 79.9523 306.612 79.4136 306.611H38.162Z" fill="#E6E6E6"/>
<path d="M58.7875 344.598C56.2558 344.598 53.7811 343.847 51.6761 342.441C49.5711 341.035 47.9305 339.037 46.9617 336.698C45.9929 334.36 45.7394 331.787 46.2333 329.305C46.7272 326.823 47.9463 324.543 49.7364 322.754C51.5265 320.964 53.8073 319.745 56.2903 319.252C58.7733 318.758 61.347 319.011 63.6859 319.98C66.0248 320.948 68.0239 322.588 69.4304 324.693C70.8369 326.797 71.5876 329.271 71.5876 331.802C71.5838 335.194 70.234 338.447 67.8343 340.845C65.4347 343.244 62.1811 344.594 58.7875 344.598ZM58.7875 320.203C56.4928 320.203 54.2497 320.884 52.3417 322.158C50.4338 323.433 48.9467 325.244 48.0686 327.363C47.1905 329.483 46.9607 331.815 47.4084 334.064C47.856 336.314 48.961 338.381 50.5836 340.003C52.2062 341.625 54.2735 342.729 56.524 343.177C58.7746 343.624 61.1074 343.395 63.2274 342.517C65.3474 341.639 67.1594 340.153 68.4342 338.245C69.7091 336.338 70.3895 334.096 70.3895 331.802C70.3859 328.727 69.1624 325.779 66.9874 323.604C64.8124 321.43 61.8634 320.207 58.7875 320.203Z" fill="#E6E6E6"/>
<path d="M168.074 344.598C168.342 344.598 168.606 344.546 168.854 344.444C169.101 344.342 169.325 344.192 169.514 344.003C169.704 343.815 169.854 343.59 169.956 343.343C170.058 343.097 170.111 342.832 170.111 342.565C170.111 342.297 170.058 342.033 169.956 341.786C169.854 341.539 169.704 341.315 169.514 341.126C169.325 340.937 169.101 340.788 168.854 340.686C168.606 340.584 168.342 340.531 168.074 340.532H126.823C126.283 340.532 125.766 340.746 125.385 341.127C125.003 341.508 124.789 342.026 124.789 342.565C124.789 343.104 125.003 343.621 125.385 344.002C125.766 344.383 126.283 344.598 126.823 344.598H168.074Z" fill="#E6E6E6"/>
<path d="M168.074 332.62C168.342 332.621 168.606 332.569 168.854 332.467C169.101 332.365 169.325 332.215 169.514 332.026C169.704 331.837 169.854 331.613 169.956 331.366C170.058 331.119 170.111 330.855 170.111 330.588C170.111 330.32 170.058 330.056 169.956 329.809C169.854 329.562 169.704 329.338 169.514 329.149C169.325 328.96 169.101 328.81 168.854 328.708C168.606 328.607 168.342 328.554 168.074 328.555H126.823C126.283 328.555 125.766 328.769 125.385 329.15C125.003 329.531 124.789 330.048 124.789 330.588C124.789 331.127 125.003 331.644 125.385 332.025C125.766 332.406 126.283 332.62 126.823 332.62H168.074Z" fill="#E6E6E6"/>
<path d="M147.448 294.634C149.979 294.634 152.454 295.385 154.559 296.791C156.664 298.197 158.305 300.195 159.273 302.533C160.242 304.872 160.496 307.444 160.002 309.927C159.508 312.409 158.289 314.689 156.499 316.478C154.709 318.268 152.428 319.487 149.945 319.98C147.462 320.474 144.888 320.221 142.549 319.252C140.21 318.284 138.211 316.644 136.805 314.539C135.398 312.435 134.647 309.961 134.647 307.43C134.651 304.038 136.001 300.785 138.401 298.386C140.8 295.988 144.054 294.638 147.448 294.634ZM147.448 319.028C149.742 319.028 151.985 318.348 153.893 317.074C155.801 315.799 157.288 313.988 158.167 311.869C159.045 309.749 159.274 307.417 158.827 305.168C158.379 302.918 157.274 300.851 155.652 299.229C154.029 297.607 151.962 296.502 149.711 296.055C147.461 295.607 145.128 295.837 143.008 296.715C140.888 297.593 139.076 299.079 137.801 300.987C136.526 302.894 135.846 305.136 135.846 307.43C135.849 310.505 137.073 313.453 139.248 315.627C141.423 317.802 144.372 319.025 147.448 319.028Z" fill="#E6E6E6"/>
<path d="M260.859 407.409H251.532L247.095 371.722L260.86 371.722L260.859 407.409Z" fill="#FFB8B8"/>
<path d="M242.123 404.765H262.858V416H233.545V413.274C233.545 411.018 234.449 408.853 236.057 407.257C237.666 405.662 239.848 404.765 242.123 404.765Z" fill="#2F2E41"/>
<path d="M298.137 407.409H288.81L284.373 371.722L298.139 371.722L298.137 407.409Z" fill="#FFB8B8"/>
<path d="M279.4 404.765H300.135V416H270.822V413.274C270.822 411.018 271.726 408.853 273.335 407.257C274.943 405.662 277.125 404.765 279.4 404.765Z" fill="#2F2E41"/>
<path d="M244.61 304.53C245.371 303.823 245.966 302.958 246.353 301.997C246.74 301.037 246.911 300.004 246.852 298.971C246.794 297.938 246.507 296.93 246.014 296.019C245.52 295.108 244.831 294.315 243.995 293.696L247.991 278.018L238.979 273.286L233.649 295.505C232.695 296.967 232.314 298.725 232.579 300.447C232.845 302.169 233.737 303.734 235.088 304.847C236.439 305.959 238.155 306.542 239.91 306.483C241.665 306.425 243.337 305.73 244.61 304.53Z" fill="#FFB8B8"/>
<path d="M301.455 277.146L300.695 329.975L299.934 399.405L283.197 397.896L274.829 302.051L264.178 397.896H246.898L245.158 301.297L251.245 280.165L301.455 277.146Z" fill="#2F2E41"/>
<path d="M249.574 280.488L249.329 280.378L258.868 215.657L254.018 196.095C253.766 195.077 253.899 194.003 254.392 193.076C254.885 192.149 255.704 191.434 256.693 191.066L265.418 187.82L268.5 179.411L292.82 182.011L293.418 188.583C296.054 189.421 317.756 196.591 316.258 204.76C314.78 212.824 306.054 238.193 305.611 239.478L304.083 275.86L303.895 275.953C303.669 276.066 286.906 284.242 268.695 284.241C262.282 284.24 255.686 283.226 249.574 280.488Z" fill="#3F3D56"/>
<path d="M233.335 287.281L241.002 238.602C241.048 238.316 245.585 209.819 247.089 200.865C248.642 191.621 255.856 191.514 255.929 191.514H259.899L264.542 212.243L255.395 253.835L246.955 288.301L233.335 287.281Z" fill="#3F3D56"/>
<path d="M283.069 282.477C283.118 281.443 283.395 280.433 283.881 279.518C284.366 278.602 285.048 277.803 285.879 277.177C286.709 276.551 287.668 276.114 288.687 275.895C289.706 275.676 290.762 275.682 291.779 275.912L301.212 262.723L310.69 266.455L297.104 284.894C296.602 286.564 295.5 287.992 294.007 288.909C292.514 289.826 290.734 290.168 289.004 289.87C287.274 289.572 285.714 288.654 284.62 287.292C283.527 285.929 282.975 284.216 283.069 282.477Z" fill="#FFB8B8"/>
<path d="M293.417 271.135L310.19 243.151L303.356 225.074L312.663 200.452L313.007 200.598C313.232 200.694 318.52 203.035 319.304 211.419L330 244.764L301.454 281.499L293.417 271.135Z" fill="#3F3D56"/>
<path d="M295.074 166.211C299.712 157.793 296.594 147.239 288.108 142.638C279.622 138.036 268.983 141.13 264.344 149.548C259.706 157.965 262.824 168.519 271.31 173.121C279.796 177.723 290.435 174.629 295.074 166.211Z" fill="#FFB8B8"/>
<path d="M267.952 149.419C269.765 151.547 272.832 152.147 275.662 152.393C281.409 152.893 289.766 152.082 295.382 150.796C295.783 154.65 294.69 158.805 296.978 161.976C298.051 158.138 298.675 154.19 298.837 150.21C298.906 148.503 298.879 146.738 298.18 145.171C297.481 143.604 295.956 142.274 294.2 142.26C295.505 141.278 297.033 140.63 298.65 140.373L293.09 137.601L294.517 136.147L284.451 135.536L287.367 133.699C282.979 133.101 278.54 132.962 274.122 133.284C272.071 133.434 269.926 133.721 268.264 134.9C266.602 136.078 265.642 138.422 266.674 140.153C265.382 140.363 264.166 140.897 263.14 141.704C262.115 142.511 261.314 143.565 260.814 144.765C260.073 146.628 260.141 148.698 260.369 150.684C260.749 153.859 261.493 156.982 262.587 159.99" fill="#2F2E41"/>
</g>
<defs>
<clipPath id="clip0_93_3147">
<rect width="330" height="416" fill="white"/>
</clipPath>
</defs>
</svg>
