<svg width="260" height="174" viewBox="0 0 260 174" fill="none" xmlns="http://www.w3.org/2000/svg">
<path d="M132.787 173.631C140.607 173.631 146.947 167.611 146.947 160.185C146.947 152.759 140.607 146.739 132.787 146.739C124.967 146.739 118.628 152.759 118.628 160.185C118.628 167.611 124.967 173.631 132.787 173.631Z" fill="#2558A3"/>
<path d="M217.376 172.876C225.297 170.617 233.719 168.261 240.001 162.89C245.615 158.091 249.405 150.763 247.079 143.565C244.758 136.383 237.807 131.593 230.629 129.211C226.558 127.86 222.3 127.111 218.042 126.522C213.415 125.882 208.766 125.358 204.12 124.853C185.307 122.81 166.424 121.561 147.469 121.108C138.117 120.885 128.766 120.89 119.412 121.019C111.058 121.134 102.26 121.131 94.5102 117.759C88.4837 115.138 83.014 110.367 81.3349 104.099C79.3965 96.8628 82.9718 89.494 88.1005 84.2534C90.8039 81.4911 93.9635 79.1662 97.2228 77.0283C100.759 74.7091 104.418 72.5541 108.157 70.5426C115.52 66.5826 123.218 63.2124 131.171 60.4671C135.094 59.1124 139.075 57.9437 143.091 56.8655C146.482 55.955 149.884 55.0433 153.162 53.8028C159.497 51.4048 165.524 47.3428 167.135 40.6836C168.661 34.3722 166.087 27.5207 161.574 22.8321C156.353 17.4078 148.48 15.0299 140.932 14.6452C132.459 14.2132 124.18 16.2271 116.216 18.783C107.721 21.5091 99.4099 24.6436 90.7359 26.8517C82.1344 29.0392 73.3665 30.5869 64.5117 31.4809C60.1771 31.9192 55.7114 32.4141 51.3509 32.0785C47.6964 31.7973 44.0606 30.7767 41.3674 28.3137C39.058 26.2019 37.6823 23.2995 38.1553 20.2365C38.2412 19.6802 39.1311 19.9167 39.0457 20.4697C38.47 24.1981 41.1388 27.6337 44.4275 29.3936C48.2284 31.4276 52.8536 31.4304 57.0852 31.1978C66.2607 30.6715 75.3741 29.4204 84.3309 27.4575C93.132 25.5486 101.619 22.8196 110.096 19.9045C118.147 17.1359 126.378 14.4337 134.979 13.8341C142.443 13.3137 150.293 14.3462 156.795 18.0501C162.509 21.3052 166.711 26.7337 168.05 32.9631C169.358 39.0503 167.546 45.1772 162.694 49.4251C157.67 53.8232 150.782 55.7036 144.362 57.4354C136.22 59.6319 128.252 62.1995 120.54 65.5333C112.723 68.9029 105.225 72.9056 98.1312 77.4969C91.2836 81.9406 84.5258 87.532 82.3601 95.4596C81.3512 99.1524 81.5375 103.069 83.2255 106.557C84.7264 109.658 87.1983 112.267 90.0779 114.279C96.9484 119.08 105.608 120.066 113.907 120.164C123.228 120.274 132.549 119.976 141.873 120.121C160.875 120.417 179.838 121.515 198.762 123.416C203.504 123.893 208.24 124.419 212.97 124.996C217.224 125.516 221.493 126.031 225.676 126.953C233.113 128.593 240.35 131.745 244.973 137.733C247.025 140.329 248.296 143.405 248.65 146.633C248.974 150.001 248.106 153.376 246.502 156.373C242.952 163.005 236.303 167.224 229.242 169.996C225.46 171.48 221.537 172.605 217.622 173.721C217.051 173.884 216.807 173.038 217.376 172.876Z" fill="#F1884F"/>
<path d="M38.7507 27.3309C42.8307 27.3309 46.1382 24.19 46.1382 20.3155C46.1382 16.441 42.8307 13.3 38.7507 13.3C34.6708 13.3 31.3633 16.441 31.3633 20.3155C31.3633 24.19 34.6708 27.3309 38.7507 27.3309Z" fill="#F1884F"/>
<path d="M90.0017 40.6309C94.0817 40.6309 97.3892 37.49 97.3892 33.6155C97.3892 29.741 94.0817 26.6001 90.0017 26.6001C85.9217 26.6001 82.6143 29.741 82.6143 33.6155C82.6143 37.49 85.9217 40.6309 90.0017 40.6309Z" fill="#F1884F"/>
<path d="M133.403 14.0308C137.483 14.0308 140.791 10.8899 140.791 7.0154C140.791 3.1409 137.483 0 133.403 0C129.323 0 126.016 3.1409 126.016 7.0154C126.016 10.8899 129.323 14.0308 133.403 14.0308Z" fill="#F1884F"/>
<path d="M160.49 43.8463C164.57 43.8463 167.877 40.7054 167.877 36.8309C167.877 32.9564 164.57 29.8155 160.49 29.8155C156.41 29.8155 153.103 32.9564 153.103 36.8309C153.103 40.7054 156.41 43.8463 160.49 43.8463Z" fill="#F1884F"/>
<path d="M123.861 78.3387C127.941 78.3387 131.249 75.1978 131.249 71.3233C131.249 67.4488 127.941 64.3079 123.861 64.3079C119.781 64.3079 116.474 67.4488 116.474 71.3233C116.474 75.1978 119.781 78.3387 123.861 78.3387Z" fill="#F1884F"/>
<path d="M77.3816 95.0003C81.4616 95.0003 84.7691 91.8594 84.7691 87.9849C84.7691 84.1104 81.4616 80.9695 77.3816 80.9695C73.3016 80.9695 69.9941 84.1104 69.9941 87.9849C69.9941 91.8594 73.3016 95.0003 77.3816 95.0003Z" fill="#F1884F"/>
<path d="M126.631 121.016C130.711 121.016 134.018 117.875 134.018 114C134.018 110.126 130.711 106.985 126.631 106.985C122.551 106.985 119.243 110.126 119.243 114C119.243 117.875 122.551 121.016 126.631 121.016Z" fill="#F2F2F2"/>
<path d="M179.575 135.631C183.655 135.631 186.962 132.49 186.962 128.616C186.962 124.741 183.655 121.6 179.575 121.6C175.495 121.6 172.188 124.741 172.188 128.616C172.188 132.49 175.495 135.631 179.575 135.631Z" fill="#F2F2F2"/>
<path d="M241.444 132.416C245.524 132.416 248.832 129.275 248.832 125.4C248.832 121.526 245.524 118.385 241.444 118.385C237.364 118.385 234.057 121.526 234.057 125.4C234.057 129.275 237.364 132.416 241.444 132.416Z" fill="#F1884F"/>
<path d="M131.271 19.878C109.142 20.0264 91.0225 37.1037 90.7082 58.1167C90.7053 58.3107 90.7039 59.6748 90.7041 61.459C90.7043 64.075 91.7986 66.5839 93.7464 68.4337C95.6943 70.2836 98.3361 71.323 101.091 71.3233C102.456 71.323 103.809 71.0672 105.07 70.5704C106.331 70.0737 107.477 69.3458 108.442 68.4284C109.408 67.5109 110.173 66.4218 110.694 65.2234C111.216 64.025 111.484 62.7407 111.483 61.4439C111.482 60.2302 111.481 59.3902 111.481 59.3386C111.48 56.0911 112.37 52.8993 114.062 50.0772C115.754 47.2552 118.191 44.9001 121.133 43.2436C124.074 41.5871 127.419 40.6862 130.838 40.6297C134.257 40.5731 137.633 41.3628 140.634 42.9211C143.634 44.4793 146.156 46.7524 147.95 49.5168C149.745 52.2812 150.751 55.4416 150.869 58.6872C150.988 61.9328 150.214 65.1517 148.625 68.0274C147.036 70.9031 144.686 73.3364 141.807 75.088L141.81 75.0922C141.81 75.0922 127.027 84.1302 122.52 96.5287L122.523 96.5296C121.731 99.0696 121.329 101.705 121.331 104.354C121.331 105.443 121.399 114.971 121.529 122.705C121.575 125.373 122.723 127.917 124.726 129.789C126.73 131.66 129.427 132.709 132.238 132.708C133.65 132.708 135.048 132.443 136.352 131.928C137.655 131.413 138.839 130.658 139.834 129.707C140.83 128.755 141.617 127.627 142.151 126.386C142.686 125.144 142.956 123.815 142.948 122.474C142.902 115.392 142.878 107.145 142.878 106.546C142.878 98.9333 150.612 91.3479 156.964 86.4013C164.28 80.7051 169.544 72.9426 171.658 64.1861C172.126 62.3833 172.384 60.5372 172.428 58.6809C172.428 53.5615 171.361 48.4927 169.289 43.7666C167.217 39.0404 164.181 34.7503 160.355 31.1434C156.529 27.5366 151.99 24.6843 146.998 22.7508C142.007 20.8173 136.661 19.841 131.271 19.878Z" fill="#2558A3"/>
<path d="M193.443 79.799C198.543 79.799 202.678 75.8729 202.678 71.0298C202.678 66.1866 198.543 62.2605 193.443 62.2605C188.343 62.2605 184.209 66.1866 184.209 71.0298C184.209 75.8729 188.343 79.799 193.443 79.799Z" fill="#2F2E41"/>
<path d="M176.379 170.161H172.606L170.811 156.339H176.38L176.379 170.161Z" fill="#A0616A"/>
<path d="M169.91 169.137H177.188V173.489H165.328C165.328 172.917 165.447 172.351 165.677 171.824C165.907 171.296 166.245 170.816 166.67 170.412C167.096 170.008 167.601 169.687 168.157 169.468C168.713 169.25 169.309 169.137 169.91 169.137Z" fill="#2F2E41"/>
<path d="M205.622 170.161H201.848L200.053 156.339H205.623L205.622 170.161Z" fill="#A0616A"/>
<path d="M199.152 169.137H206.429V173.489H194.569C194.569 172.917 194.688 172.351 194.918 171.824C195.148 171.296 195.486 170.816 195.911 170.412C196.337 170.008 196.842 169.687 197.398 169.468C197.954 169.25 198.55 169.137 199.152 169.137Z" fill="#2F2E41"/>
<path d="M192.04 79.8503C196.215 79.8503 199.6 76.6359 199.6 72.6709C199.6 68.7058 196.215 65.4915 192.04 65.4915C187.864 65.4915 184.479 68.7058 184.479 72.6709C184.479 76.6359 187.864 79.8503 192.04 79.8503Z" fill="#A0616A"/>
<path d="M196.546 103.011L199.929 95.6304C200.75 93.899 200.986 91.9681 200.603 90.1041C200.22 88.2402 199.237 86.5351 197.79 85.2243C197.492 84.9452 197.177 84.6846 196.845 84.4438C195.175 83.2038 193.119 82.528 190.999 82.5233C189.574 82.5286 188.168 82.8257 186.875 83.3944C186.764 83.4412 186.656 83.4909 186.545 83.5406C186.333 83.637 186.124 83.7422 185.92 83.8504C184.595 84.5729 183.468 85.5811 182.628 86.7936C181.789 88.0061 181.261 89.389 181.088 90.8307L179.595 102.71C179.219 103.643 165.824 137.317 170.508 163.025C170.558 163.3 170.699 163.552 170.911 163.745C171.122 163.938 171.393 164.062 171.684 164.098L176.434 164.712C176.781 164.757 177.132 164.675 177.419 164.484C177.705 164.292 177.904 164.005 177.976 163.68L185.945 127.606C185.995 127.382 186.122 127.18 186.307 127.033C186.491 126.885 186.723 126.801 186.964 126.793C187.205 126.786 187.442 126.855 187.637 126.99C187.831 127.125 187.973 127.318 188.038 127.539L199.298 165.475C199.378 165.75 199.551 165.993 199.791 166.166C200.031 166.34 200.323 166.433 200.625 166.433C200.714 166.433 200.804 166.425 200.892 166.41L206.695 165.349C207.032 165.289 207.333 165.112 207.54 164.852C207.747 164.591 207.844 164.267 207.812 163.943C206.959 154.914 202.428 109.685 196.546 103.011Z" fill="#2F2E41"/>
<path d="M162.66 78.6456C162.607 79.0724 162.654 79.505 162.796 79.9128C162.939 80.3206 163.174 80.6938 163.485 81.006C163.796 81.3182 164.175 81.5619 164.596 81.7199C165.017 81.8779 165.469 81.9464 165.921 81.9204L170.147 91.5644L173.343 87.0645L168.84 78.5963C168.744 77.8786 168.374 77.2193 167.8 76.7434C167.226 76.2675 166.489 76.0079 165.727 76.014C164.965 76.0201 164.232 76.2913 163.667 76.7763C163.101 77.2614 162.743 77.9265 162.66 78.6456Z" fill="#A0616A"/>
<path d="M191.621 112.722C192.07 112.671 192.502 112.527 192.886 112.3C193.271 112.073 193.598 111.769 193.845 111.41C194.093 111.05 194.254 110.643 194.318 110.217C194.381 109.792 194.346 109.358 194.214 108.947L203.106 102.798L197.753 100.894L190.13 107.026C189.417 107.282 188.829 107.777 188.475 108.418C188.121 109.059 188.027 109.8 188.211 110.502C188.395 111.205 188.843 111.818 189.472 112.227C190.1 112.636 190.865 112.812 191.621 112.722Z" fill="#A0616A"/>
<path d="M177.127 97.9938C176.786 97.9935 176.446 97.9616 176.111 97.8987C175.303 97.7526 174.544 97.4197 173.903 96.9295C173.262 96.4393 172.757 95.8069 172.434 95.0878L166.513 88.2323C166.388 88.0873 166.297 87.9187 166.246 87.7376C166.195 87.5565 166.186 87.3671 166.218 87.1822C166.25 86.9973 166.324 86.8211 166.434 86.6654C166.544 86.5097 166.688 86.3781 166.855 86.2795L171.068 83.8034C171.223 83.712 171.396 83.6507 171.577 83.6231C171.757 83.5955 171.942 83.6021 172.12 83.6426C172.298 83.6831 172.465 83.7567 172.613 83.859C172.761 83.9614 172.886 84.0905 172.981 84.239L177.153 90.7674L185.145 85.159C185.781 84.8422 186.516 84.7534 187.216 84.9087C187.915 85.0641 188.532 85.4532 188.955 86.0051C189.377 86.557 189.576 87.2348 189.516 87.9146C189.456 88.5944 189.14 89.2309 188.626 89.7078L180.65 96.617C179.713 97.4993 178.446 97.9941 177.127 97.9938Z" fill="#2F2E41"/>
<path d="M198.719 108.304C198.708 108.304 198.697 108.304 198.686 108.304C198.492 108.299 198.301 108.256 198.126 108.177C197.95 108.098 197.794 107.985 197.667 107.845L193.922 103.696C193.795 103.555 193.7 103.389 193.645 103.211C193.59 103.032 193.575 102.845 193.602 102.66C193.629 102.476 193.696 102.299 193.8 102.141C193.904 101.984 194.043 101.849 194.206 101.746L201.218 97.3061L194.865 90.0532C194.496 89.4682 194.36 88.7764 194.483 88.1043C194.607 87.4321 194.98 86.8245 195.536 86.3925C196.092 85.9604 196.793 85.7327 197.512 85.751C198.23 85.7693 198.917 86.0324 199.448 86.4921L207.169 93.6574C207.776 94.1846 208.24 94.8439 208.521 95.5788C208.801 96.3137 208.889 97.1022 208.778 97.8766C208.667 98.651 208.359 99.3883 207.882 100.025C207.405 100.662 206.772 101.179 206.037 101.532L199.727 107.891C199.597 108.022 199.441 108.125 199.268 108.196C199.094 108.267 198.908 108.304 198.719 108.304Z" fill="#2F2E41"/>
<path d="M190.118 93.0167C190.057 93.0167 189.997 93.0131 189.938 93.0059C189.677 92.9758 189.431 92.8753 189.228 92.7163C189.026 92.5573 188.876 92.3465 188.796 92.1089L185.982 83.9156C185.911 83.7085 185.922 83.4841 186.012 83.284C186.102 83.0838 186.266 82.9215 186.472 82.8269L186.563 82.786C186.646 82.7486 186.728 82.7116 186.812 82.6762C188.124 82.0983 189.553 81.7968 190.999 81.7925C192.877 81.7958 194.713 82.3197 196.282 83.2999C196.492 83.4328 196.639 83.6389 196.691 83.8737C196.743 84.1084 196.695 84.3532 196.559 84.5552L191.28 92.4089C191.156 92.5953 190.985 92.7489 190.781 92.8553C190.578 92.9616 190.35 93.0171 190.118 93.0167Z" fill="#E6E6E6"/>
<path d="M200.724 67.1149C202.393 67.1149 203.746 65.8301 203.746 64.2454C203.746 62.6606 202.393 61.3759 200.724 61.3759C199.055 61.3759 197.702 62.6606 197.702 64.2454C197.702 65.8301 199.055 67.1149 200.724 67.1149Z" fill="#2F2E41"/>
<path d="M190.365 61.0913C188.243 61.0913 186.207 61.892 184.706 63.3173C183.205 64.7426 182.362 66.6757 182.362 68.6913V71.9067H186.527L188.519 68.6913L189.116 71.9067H201.754L198.368 68.6913C198.368 66.6757 197.525 64.7426 196.024 63.3173C194.524 61.892 192.488 61.0913 190.365 61.0913Z" fill="#2F2E41"/>
<path d="M202.276 62.2798C202.611 61.2876 203.302 60.439 204.23 59.8832C205.158 59.3274 206.262 59.1001 207.349 59.2411C209.275 59.5468 210.798 61.0167 211.705 62.6585C212.612 64.3002 213.031 66.1377 213.641 67.899C214.25 69.6603 215.115 71.4311 216.655 72.5712C218.195 73.7113 220.557 74.0206 222.069 72.8478C221.897 74.0701 221.324 75.2099 220.431 76.106C219.539 77.0021 218.373 77.6091 217.097 77.8412C215.822 78.0733 214.502 77.9187 213.324 77.3993C212.146 76.8799 211.17 76.022 210.533 74.9469C209.736 73.5989 209.53 72.0189 209.293 70.4889C209.056 68.9589 208.749 67.3759 207.796 66.1217C206.844 64.8675 205.061 64.0484 203.547 64.6196L202.276 62.2798Z" fill="#2F2E41"/>
<path d="M104.024 66.6575C101.269 66.6572 98.6269 65.6179 96.6791 63.768C94.7312 61.9182 93.6369 59.4093 93.6367 56.7933C93.6366 55.0091 93.6379 53.645 93.6408 53.451C93.7283 47.3398 95.349 41.3365 98.3684 35.9391C93.4076 42.3883 90.6799 50.1421 90.5627 58.1279C90.5598 58.3219 90.5585 59.6861 90.5586 61.4702C90.5588 64.0863 91.6531 66.5951 93.601 68.4449C95.5488 70.2948 98.1907 71.3342 100.945 71.3345C103.209 71.3337 105.411 70.6312 107.215 69.3338C109.02 68.0365 110.33 66.2151 110.945 64.1464C109.044 65.7661 106.578 66.6605 104.024 66.6575Z" fill="#3F3D56"/>
<path d="M131.974 40.6628C135.159 40.8072 138.259 41.6835 141.009 43.2164C143.758 44.7492 146.075 46.8929 147.76 49.4633C149.445 52.0337 150.448 54.954 150.682 57.9736C150.917 60.9931 150.376 64.0216 149.107 66.799C150.943 64.7512 152.292 62.3516 153.063 59.7637C153.834 57.1758 154.009 54.4605 153.574 51.8028C153.14 49.1451 152.107 46.6076 150.547 44.3633C148.986 42.1189 146.934 40.2205 144.531 38.7975C142.128 37.3745 139.43 36.4602 136.621 36.1172C133.812 35.7741 130.958 36.0103 128.254 36.8095C125.55 37.6088 123.059 38.9524 120.951 40.7487C118.843 42.545 117.168 44.7518 116.04 47.2186C117.99 45.0402 120.441 43.3161 123.204 42.1795C125.966 41.0428 128.967 40.5239 131.974 40.6628Z" fill="#3F3D56"/>
<path d="M135.17 128.042C132.36 128.043 129.662 126.994 127.659 125.123C125.655 123.251 124.507 120.707 124.461 118.039C124.331 110.305 124.264 100.777 124.264 99.6884C124.262 97.0393 124.663 94.4039 125.456 91.8639L125.452 91.863C125.92 90.5881 126.485 89.3473 127.143 88.1505C125.124 90.7065 123.516 93.534 122.374 96.54L122.378 96.5408C121.585 99.0808 121.184 101.716 121.186 104.365C121.186 105.454 121.253 114.982 121.383 122.716C121.429 125.384 122.577 127.928 124.581 129.8C126.584 131.671 129.282 132.72 132.092 132.719C134.409 132.719 136.664 132.005 138.517 130.685C140.371 129.365 141.724 127.51 142.374 125.397C140.404 127.102 137.835 128.046 135.17 128.042Z" fill="#3F3D56"/>
<path d="M129.667 170.352C127.656 169.52 125.876 168.255 124.467 166.658C123.058 165.061 122.06 163.174 121.55 161.148C121.041 159.122 121.034 157.01 121.531 154.981C122.028 152.952 123.014 151.06 124.413 149.455C122.791 150.579 121.44 152.018 120.449 153.676C119.458 155.334 118.849 157.174 118.664 159.072C118.479 160.971 118.721 162.885 119.374 164.688C120.027 166.491 121.077 168.141 122.453 169.53C123.829 170.918 125.501 172.013 127.356 172.74C129.212 173.468 131.21 173.813 133.216 173.752C135.223 173.691 137.193 173.225 138.996 172.386C140.799 171.546 142.393 170.352 143.672 168.883C141.676 170.268 139.333 171.133 136.876 171.39C134.419 171.648 131.933 171.29 129.667 170.352Z" fill="#3F3D56"/>
</svg>
