<svg width="283" height="213" viewBox="0 0 283 213" fill="none" xmlns="http://www.w3.org/2000/svg">
<path d="M197.915 209.832L193.623 209.831L191.581 195.572L197.915 195.573L197.915 209.832Z" fill="#FFB6B6"/>
<path d="M183.21 209.748C183.076 209.942 183.006 210.567 183.006 210.793C183.006 211.486 183.658 212.047 184.463 212.047H197.754C198.303 212.047 198.748 211.664 198.748 211.191V210.715C198.748 210.715 199.405 209.282 198.051 207.517C198.051 207.517 196.369 208.899 193.855 206.734L193.114 205.577L187.747 208.957L184.773 209.273C184.122 209.342 183.545 209.262 183.21 209.748Z" fill="#2F2E41"/>
<path d="M243.221 205.207L239.299 206.709L230.708 194.394L236.496 192.178L243.221 205.207Z" fill="#FFB6B6"/>
<path d="M229.745 210.276C229.714 210.5 229.945 211.096 230.051 211.302C230.378 211.935 231.239 212.22 231.974 211.939L244.119 207.288C244.621 207.096 244.846 206.59 244.624 206.158L244.399 205.723C244.399 205.723 244.324 204.184 242.254 203.044C242.254 203.044 241.369 204.896 238.05 203.797L236.827 202.999L233.518 207.966L230.949 209.295C230.387 209.586 229.822 209.715 229.745 210.276Z" fill="#2F2E41"/>
<path d="M188.586 120.611L184.771 127.513L191.257 199.163H199.37L202.705 152.163L231.82 199.163H241.771L226.745 165.639L216.442 121.925L188.586 120.611Z" fill="#2F2E41"/>
<path d="M209.018 76.3469H198.956L195.266 81.3344L186.942 84.7633L188.752 106.272L187.844 121.954L189.088 121.923C197.968 121.7 206.844 122.944 215.085 125.802C217.199 126.535 219.415 126.944 221.323 126.533C221.323 126.533 220.599 124.04 219.875 123.416C219.152 122.793 218.79 122.277 219.152 121.912C219.513 121.546 220.237 121.234 219.513 120.611C218.79 119.987 218.79 119.202 218.79 119.202L216.618 105.337L220.961 85.6984L211.914 81.3344L209.018 76.3469Z" fill="#2558A3"/>
<path d="M226.309 103.538L226.034 121.933L220.721 138.331L216.473 136.966L218.359 121.936L218.111 101.596L226.309 103.538Z" fill="#FFB6B6"/>
<path d="M220.703 140.975C221.201 138.617 220.287 136.499 218.662 136.244C217.037 135.99 215.315 137.694 214.817 140.052C214.318 142.41 215.232 144.528 216.857 144.783C218.482 145.038 220.204 143.333 220.703 140.975Z" fill="#FFB6B6"/>
<path d="M218.79 84.7633C218.79 84.7633 224.786 85.5635 224.864 89.995C224.942 94.4266 230.733 101.596 227.114 107.207L217.704 108.454L212.638 92.5563L218.428 84.1399" fill="#2558A3"/>
<path d="M191.423 100.299L179.475 115.547L164.586 126.744L161.904 123.595L173.057 111.922L185.808 94.8003L191.423 100.299Z" fill="#FFB6B6"/>
<path d="M162.886 128.946C164.805 127.21 165.391 125.008 164.194 124.027C162.998 123.045 160.472 123.657 158.553 125.392C156.635 127.128 156.049 129.33 157.245 130.312C158.442 131.293 160.967 130.682 162.886 128.946Z" fill="#FFB6B6"/>
<path d="M197.099 81.049C197.099 81.049 201.602 84.5518 198.844 88.2936C196.086 92.0353 196.359 100.766 189.759 103.746L181.099 100.341C181.828 94.1938 182.254 87.8203 186.991 84.656L197.194 80.3568" fill="#2558A3"/>
<path d="M202.426 75.0622C207.398 75.0622 211.429 71.5903 211.429 67.3074C211.429 63.0246 207.398 59.5526 202.426 59.5526C197.454 59.5526 193.423 63.0246 193.423 67.3074C193.423 71.5903 197.454 75.0622 202.426 75.0622Z" fill="#FFB6B6"/>
<path d="M209.039 73.6791C209.535 73.7519 210.117 72.7165 210.673 71.7081C211.838 69.5972 212.578 68.2553 212.635 66.3585C212.683 64.7419 212.161 65.1662 211.654 61.572C211.487 60.3865 209.135 60.3888 208.657 59.8259C207.848 58.875 209.089 58.4829 207.077 57.9117C203.31 56.8418 201.607 58.5038 199.214 58.647C199.154 58.6506 197.968 59.6497 197.306 59.7013C196.145 59.7918 194.471 59.6361 193.72 58.1132C193.019 56.6892 192.554 60.8504 193.181 61.3653C193.714 61.8025 194.632 62.9 194.656 62.9798C194.682 63.0701 192.471 60.9606 192.102 61.8299C191.837 62.4556 192.673 65.6744 193.348 65.7954C193.913 65.8965 195.294 64.2931 194.983 64.9507C194.26 66.4758 198.606 67.449 203.809 64.3876C203.993 64.279 203.819 64.4522 204.462 65.7954C205.274 67.4895 205.457 67.5812 205.443 68.0478C205.412 69.0579 204.532 69.3553 204.789 70.0188C204.998 70.5561 205.812 70.9721 206.424 70.8634C207.114 70.7408 207.232 70.0057 207.731 70.0188C208.159 70.03 208.667 70.5849 208.712 71.145C208.807 72.325 206.779 72.6495 206.424 74.2422C206.223 75.141 208.583 73.6121 209.039 73.6791Z" fill="#2F2E41"/>
<path d="M137.766 212.401H60.4046C48.8014 212.401 39.3613 204.27 39.3613 194.275V18.1253C39.3613 8.13103 48.8014 0 60.4046 0H137.766C149.369 0 158.809 8.13103 158.809 18.1253C160.249 88.8616 162.705 168.075 158.809 194.275C158.809 204.27 149.369 212.401 137.766 212.401Z" fill="#3F3D56"/>
<path d="M159.888 64.7937C159.397 64.7937 158.998 65.1376 158.998 65.5605V90.0977C158.998 90.5206 159.397 90.8645 159.888 90.8645C160.379 90.8645 160.779 90.5206 160.779 90.0977V65.5605C160.779 65.1376 160.379 64.7937 159.888 64.7937Z" fill="#3F3D56"/>
<path d="M156.807 18.1255V194.272C156.807 202.971 148.946 210.087 139.007 210.639H139.002C138.855 210.647 138.708 210.655 138.557 210.658C138.295 210.67 138.032 210.674 137.765 210.674C137.765 210.674 136.786 210.612 134.996 210.497C133.189 210.382 130.558 210.21 127.278 209.984C126.294 209.918 125.257 209.846 124.162 209.769C121.981 209.616 119.586 209.447 117.018 209.255C115.994 209.182 114.935 209.102 113.853 209.021C108.325 208.611 102.133 208.132 95.6034 207.587C94.4995 207.499 93.3867 207.407 92.265 207.311C91.9713 207.285 41.3652 196.327 41.3652 194.272V18.1255C41.3652 9.06589 49.8892 1.72388 60.4073 1.72388H71.7756C73.5917 1.72388 75.0516 2.94307 75.2075 4.50349C75.2208 4.60701 75.2342 4.71051 75.2564 4.81403C75.5858 6.38213 77.255 7.47479 79.1066 7.47479H119.066C120.917 7.47479 122.586 6.38213 122.916 4.81403C122.938 4.71051 122.951 4.60701 122.965 4.50349C123.12 2.94307 124.58 1.72388 126.397 1.72388H137.765C148.283 1.72388 156.807 9.06589 156.807 18.1255Z" fill="#E0F5FF"/>
<path d="M38.9166 46.3907C38.4256 46.3907 38.0264 46.7346 38.0264 47.1575V53.2918C38.0264 53.7147 38.4256 54.0586 38.9166 54.0586C39.4076 54.0586 39.8068 53.7147 39.8068 53.2918V47.1575C39.8068 46.7346 39.4076 46.3907 38.9166 46.3907Z" fill="#3F3D56"/>
<path d="M38.9166 64.7937C38.4256 64.7937 38.0264 65.1376 38.0264 65.5605V77.4457C38.0264 77.8686 38.4256 78.2125 38.9166 78.2125C39.4076 78.2125 39.8068 77.8686 39.8068 77.4457V65.5605C39.8068 65.1376 39.4076 64.7937 38.9166 64.7937Z" fill="#3F3D56"/>
<path d="M38.9166 81.6631C38.4256 81.6631 38.0264 82.007 38.0264 82.4299V94.3151C38.0264 94.738 38.4256 95.0819 38.9166 95.0819C39.4076 95.0819 39.8068 94.738 39.8068 94.3151V82.4299C39.8068 82.007 39.4076 81.6631 38.9166 81.6631Z" fill="#3F3D56"/>
<path d="M71.4657 4.40906H54.4408C54.3484 4.40906 54.2734 4.47358 54.2734 4.55318V6.18191C54.2734 6.26151 54.3484 6.32603 54.4408 6.32603H71.4657C71.5581 6.32603 71.633 6.26151 71.633 6.18191V4.55318C71.633 4.47358 71.5581 4.40906 71.4657 4.40906Z" fill="#E6E6E6"/>
<path d="M129.209 6.32607C130.192 6.32607 130.99 5.63946 130.99 4.79249C130.99 3.94552 130.192 3.25891 129.209 3.25891C128.226 3.25891 127.429 3.94552 127.429 4.79249C127.429 5.63946 128.226 6.32607 129.209 6.32607Z" fill="#E6E6E6"/>
<path d="M134.106 6.32607C135.089 6.32607 135.886 5.63946 135.886 4.79249C135.886 3.94552 135.089 3.25891 134.106 3.25891C133.122 3.25891 132.325 3.94552 132.325 4.79249C132.325 5.63946 133.122 6.32607 134.106 6.32607Z" fill="#E6E6E6"/>
<path d="M139.002 6.32607C139.985 6.32607 140.783 5.63946 140.783 4.79249C140.783 3.94552 139.985 3.25891 139.002 3.25891C138.019 3.25891 137.222 3.94552 137.222 4.79249C137.222 5.63946 138.019 6.32607 139.002 6.32607Z" fill="#E6E6E6"/>
<path d="M139.568 141.108C139.568 123.628 122.415 114.012 102.821 109.457C77.7002 103.618 59.3021 115.434 66.0744 141.108C70.5707 158.154 93.3934 183.593 102.821 168.114C113.609 150.4 139.568 158.589 139.568 141.108Z" fill="#E6E6E6"/>
<path d="M100.02 123.35L104.06 120.943C100.95 121.208 96.7296 120.669 93.5758 119.936C95.4113 122.264 97.381 125.525 98.1076 128.144L99.4085 124.123C110.229 132.382 113.598 144.877 107.372 154.168L107.727 154.52C114.23 144.815 111.305 131.901 100.02 123.35Z" fill="#2558A3"/>
<path d="M110.623 156.583H82.5745C81.3849 156.583 80.417 155.749 80.417 154.725C80.417 153.7 81.3849 152.866 82.5745 152.866H110.623C111.812 152.866 112.78 153.7 112.78 154.725C112.78 155.749 111.812 156.583 110.623 156.583Z" fill="#2558A3"/>
<path d="M136.842 60.2694V109.516C136.842 113.871 132.729 117.414 127.673 117.414H70.4977C65.4415 117.414 61.3281 113.871 61.3281 109.516V60.2694C61.3281 55.9143 65.4415 52.3713 70.4977 52.3713H127.673C132.729 52.3713 136.842 55.9143 136.842 60.2694ZM127.673 116.485C132.141 116.485 135.763 113.365 135.763 109.516V84.6879C135.763 67.3531 119.449 53.3005 99.323 53.3005H70.4977C66.0293 53.3005 62.4069 56.4206 62.4069 60.2694V109.516C62.4069 113.365 66.0293 116.485 70.4977 116.485H127.673Z" fill="#3F3D56"/>
<path d="M106.697 72.4845H88.2385C87.7732 72.4845 87.3945 72.1584 87.3945 71.7576C87.3945 71.3567 87.7732 71.0308 88.2385 71.0308H106.697C107.162 71.0308 107.54 71.3567 107.54 71.7576C107.54 72.1584 107.162 72.4845 106.697 72.4845Z" fill="#3F3D56"/>
<path d="M106.697 87.985H88.2385C87.7732 87.985 87.3945 87.6589 87.3945 87.2581C87.3945 86.8572 87.7732 86.5312 88.2385 86.5312H106.697C107.162 86.5312 107.54 86.8572 107.54 87.2581C107.54 87.6589 107.162 87.985 106.697 87.985Z" fill="#3F3D56"/>
<path d="M97.5267 109.356H79.0686C78.6032 109.356 78.2246 109.03 78.2246 108.629C78.2246 108.228 78.6032 107.902 79.0686 107.902H97.5267C97.9921 107.902 98.3705 108.228 98.3705 108.629C98.3705 109.03 97.9921 109.356 97.5267 109.356Z" fill="#3F3D56"/>
<path d="M116.601 80.2399H78.3332C77.8679 80.2399 77.4893 79.9138 77.4893 79.5129C77.4893 79.1121 77.8679 78.7861 78.3332 78.7861H116.601C117.066 78.7861 117.445 79.1121 117.445 79.5129C117.445 79.9138 117.066 80.2399 116.601 80.2399Z" fill="#3F3D56"/>
</svg>
