<svg width="330" height="263" viewBox="0 0 330 263" fill="none" xmlns="http://www.w3.org/2000/svg">
<g clip-path="url(#clip0_93_3512)">
<path d="M192.225 46.3637C198.41 46.3637 203.423 40.8697 203.423 34.0925C203.423 27.3153 198.41 21.8213 192.225 21.8213C186.04 21.8213 181.026 27.3153 181.026 34.0925C181.026 40.8697 186.04 46.3637 192.225 46.3637Z" fill="#F2F2F2"/>
<path d="M279.095 228.483C295.74 214.59 303.69 191.245 298.713 168.975C298.59 168.421 298.459 167.869 298.322 167.319C295.022 154.099 286.859 141.536 274.961 137.312C264.97 133.765 254.066 136.492 243.644 135.082C223.184 132.313 207.322 114.174 196.162 95.1814C185.001 76.1889 176.423 54.9296 161.593 39.239C137.148 13.3758 97.2718 7.80745 66.9632 24.6425C36.6547 41.4775 17.3485 78.8275 18.1718 116.051C18.9952 153.275 39.1617 188.864 68.4485 207.746C79.2073 214.682 91.6509 219.596 104.035 217.877C114.78 216.385 124.543 210.058 135.238 208.18C152.053 205.227 168.76 213.557 183.304 223.265C197.847 232.973 211.895 244.479 228.421 248.98C244.469 253.35 264.35 240.789 279.095 228.483Z" fill="#E6E6E6"/>
<path d="M255.18 25.4241C254.815 25.1576 254.446 24.9048 254.081 24.6474C243.533 17.2554 232.228 11.2502 220.398 6.75587L217.655 48.2195H200.266V0.703162C199.172 0.454987 198.069 0.2206 196.966 0V48.2195H176.301C164.925 48.2195 154.015 43.2675 145.971 34.453C137.927 25.6385 133.408 13.6835 133.408 1.21795C132.301 1.47991 131.202 1.76022 130.103 2.05894V48.2195H113.272L110.659 8.68153C98.5026 13.7904 86.9615 20.5088 76.2929 28.6872C76.1084 28.8251 75.9239 28.9675 75.7435 29.1054C74.8166 29.8178 73.9023 30.5439 72.9922 31.2792V189.463H122.596L121.719 176.158L116.896 103.107H214.027L209.204 176.158L208.327 189.463H257.382V27.0235C256.652 26.4812 255.918 25.9481 255.18 25.4241ZM130.103 91.0434H116.099L113.511 51.841H130.103V91.0434ZM196.966 91.0434H173.445V90.2667C173.445 89.8933 173.378 89.5236 173.247 89.1787C173.117 88.8338 172.926 88.5205 172.684 88.2567C172.443 87.9929 172.157 87.7838 171.842 87.6413C171.527 87.4989 171.19 87.4259 170.849 87.4265H160.624C160.283 87.4264 159.946 87.4997 159.632 87.6424C159.317 87.7851 159.031 87.9943 158.791 88.2581C158.55 88.5218 158.359 88.835 158.229 89.1796C158.099 89.5243 158.032 89.8937 158.032 90.2667V91.0434H133.408V51.841H196.966V91.0434ZM200.266 91.0434V51.841H217.416L214.828 91.0434H200.266Z" fill="#3F3D56"/>
<path d="M0 199.593C3.64352 204.323 7.5844 208.769 11.7938 212.898L318.206 213.357C322.416 209.229 326.356 204.783 330 200.052L0 199.593Z" fill="#3F3D56"/>
<path d="M207.788 156.99V196.378C207.788 196.88 207.971 197.361 208.294 197.716C208.618 198.071 209.058 198.27 209.516 198.271H262.783C263.241 198.27 263.68 198.071 264.004 197.716C264.328 197.361 264.51 196.88 264.51 196.378V156.99C264.509 156.488 264.327 156.007 264.003 155.653C263.679 155.299 263.24 155.099 262.783 155.099H209.516C209.058 155.099 208.619 155.299 208.295 155.653C207.972 156.007 207.789 156.488 207.788 156.99Z" fill="#3F3D56"/>
<path d="M209.038 157.48V195.892C209.039 196.16 209.136 196.417 209.309 196.607C209.482 196.796 209.717 196.903 209.961 196.904H262.34C262.584 196.903 262.819 196.796 262.992 196.607C263.165 196.417 263.262 196.16 263.263 195.892V157.48C263.263 157.211 263.166 156.954 262.993 156.764C262.819 156.573 262.585 156.466 262.34 156.466H209.961C209.716 156.466 209.482 156.573 209.308 156.764C209.135 156.954 209.038 157.211 209.038 157.48Z" fill="#2558A3"/>
<path d="M206.674 204.059C206.772 204.194 206.896 204.302 207.037 204.376C207.178 204.45 207.333 204.488 207.49 204.487H264.526C264.682 204.487 264.836 204.448 264.977 204.375C265.117 204.301 265.241 204.194 265.34 204.061C265.438 203.928 265.508 203.773 265.545 203.607C265.581 203.441 265.584 203.268 265.552 203.101L264.666 198.493C264.63 198.305 264.551 198.13 264.437 197.984C264.322 197.838 264.177 197.726 264.013 197.657C263.894 197.606 263.768 197.58 263.641 197.58H208.371C208.244 197.58 208.118 197.606 207.999 197.657C207.835 197.726 207.689 197.838 207.575 197.984C207.461 198.13 207.382 198.305 207.346 198.493L206.46 203.101C206.429 203.268 206.432 203.441 206.469 203.607C206.506 203.772 206.576 203.927 206.674 204.059Z" fill="#2F2E41"/>
<path d="M261.683 199.565H263.031C263.144 199.565 263.235 199.465 263.235 199.341V198.634C263.235 198.51 263.144 198.41 263.031 198.41H261.683C261.57 198.41 261.479 198.51 261.479 198.634V199.341C261.479 199.465 261.57 199.565 261.683 199.565Z" fill="#3F3D56"/>
<path d="M258.17 199.565H259.517C259.63 199.565 259.722 199.465 259.722 199.341V198.634C259.722 198.51 259.63 198.41 259.517 198.41H258.17C258.057 198.41 257.965 198.51 257.965 198.634V199.341C257.965 199.465 258.057 199.565 258.17 199.565Z" fill="#3F3D56"/>
<path d="M254.656 199.565H256.003C256.116 199.565 256.208 199.465 256.208 199.341V198.634C256.208 198.51 256.116 198.41 256.003 198.41H254.656C254.543 198.41 254.451 198.51 254.451 198.634V199.341C254.451 199.465 254.543 199.565 254.656 199.565Z" fill="#3F3D56"/>
<path d="M251.143 199.565H252.491C252.604 199.565 252.695 199.465 252.695 199.341V198.634C252.695 198.51 252.604 198.41 252.491 198.41H251.143C251.03 198.41 250.939 198.51 250.939 198.634V199.341C250.939 199.465 251.03 199.565 251.143 199.565Z" fill="#3F3D56"/>
<path d="M247.63 199.565H248.977C249.09 199.565 249.182 199.465 249.182 199.341V198.634C249.182 198.51 249.09 198.41 248.977 198.41H247.63C247.517 198.41 247.425 198.51 247.425 198.634V199.341C247.425 199.465 247.517 199.565 247.63 199.565Z" fill="#3F3D56"/>
<path d="M244.116 199.565H245.463C245.576 199.565 245.668 199.465 245.668 199.341V198.634C245.668 198.51 245.576 198.41 245.463 198.41H244.116C244.003 198.41 243.911 198.51 243.911 198.634V199.341C243.911 199.465 244.003 199.565 244.116 199.565Z" fill="#3F3D56"/>
<path d="M240.602 199.565H241.95C242.063 199.565 242.154 199.465 242.154 199.341V198.634C242.154 198.51 242.063 198.41 241.95 198.41H240.602C240.489 198.41 240.398 198.51 240.398 198.634V199.341C240.398 199.465 240.489 199.565 240.602 199.565Z" fill="#3F3D56"/>
<path d="M237.09 199.565H238.437C238.55 199.565 238.642 199.465 238.642 199.341V198.634C238.642 198.51 238.55 198.41 238.437 198.41H237.09C236.977 198.41 236.885 198.51 236.885 198.634V199.341C236.885 199.465 236.977 199.565 237.09 199.565Z" fill="#3F3D56"/>
<path d="M233.576 199.565H234.923C235.036 199.565 235.128 199.465 235.128 199.341V198.634C235.128 198.51 235.036 198.41 234.923 198.41H233.576C233.463 198.41 233.371 198.51 233.371 198.634V199.341C233.371 199.465 233.463 199.565 233.576 199.565Z" fill="#3F3D56"/>
<path d="M230.062 199.565H231.409C231.523 199.565 231.614 199.465 231.614 199.341V198.634C231.614 198.51 231.523 198.41 231.409 198.41H230.062C229.949 198.41 229.858 198.51 229.858 198.634V199.341C229.858 199.465 229.949 199.565 230.062 199.565Z" fill="#3F3D56"/>
<path d="M226.55 199.565H227.897C228.01 199.565 228.102 199.465 228.102 199.341V198.634C228.102 198.51 228.01 198.41 227.897 198.41H226.55C226.437 198.41 226.345 198.51 226.345 198.634V199.341C226.345 199.465 226.437 199.565 226.55 199.565Z" fill="#3F3D56"/>
<path d="M223.036 199.565H224.383C224.496 199.565 224.588 199.465 224.588 199.341V198.634C224.588 198.51 224.496 198.41 224.383 198.41H223.036C222.923 198.41 222.831 198.51 222.831 198.634V199.341C222.831 199.465 222.923 199.565 223.036 199.565Z" fill="#3F3D56"/>
<path d="M219.522 199.565H220.869C220.983 199.565 221.074 199.465 221.074 199.341V198.634C221.074 198.51 220.983 198.41 220.869 198.41H219.522C219.409 198.41 219.318 198.51 219.318 198.634V199.341C219.318 199.465 219.409 199.565 219.522 199.565Z" fill="#3F3D56"/>
<path d="M216.01 199.565H217.357C217.47 199.565 217.562 199.465 217.562 199.341V198.634C217.562 198.51 217.47 198.41 217.357 198.41H216.01C215.896 198.41 215.805 198.51 215.805 198.634V199.341C215.805 199.465 215.896 199.565 216.01 199.565Z" fill="#3F3D56"/>
<path d="M212.496 199.565H213.843C213.956 199.565 214.048 199.465 214.048 199.341V198.634C214.048 198.51 213.956 198.41 213.843 198.41H212.496C212.383 198.41 212.291 198.51 212.291 198.634V199.341C212.291 199.465 212.383 199.565 212.496 199.565Z" fill="#3F3D56"/>
<path d="M208.982 199.565H210.329C210.443 199.565 210.534 199.465 210.534 199.341V198.634C210.534 198.51 210.443 198.41 210.329 198.41H208.982C208.869 198.41 208.777 198.51 208.777 198.634V199.341C208.777 199.465 208.869 199.565 208.982 199.565Z" fill="#3F3D56"/>
<path d="M261.724 201.49H263.072C263.185 201.49 263.276 201.39 263.276 201.266V200.559C263.276 200.435 263.185 200.335 263.072 200.335H261.724C261.611 200.335 261.52 200.435 261.52 200.559V201.266C261.52 201.39 261.611 201.49 261.724 201.49Z" fill="#3F3D56"/>
<path d="M258.212 201.49H259.559C259.672 201.49 259.764 201.39 259.764 201.266V200.559C259.764 200.435 259.672 200.335 259.559 200.335H258.212C258.099 200.335 258.007 200.435 258.007 200.559V201.266C258.007 201.39 258.099 201.49 258.212 201.49Z" fill="#3F3D56"/>
<path d="M254.698 201.49H256.045C256.158 201.49 256.25 201.39 256.25 201.266V200.559C256.25 200.435 256.158 200.335 256.045 200.335H254.698C254.585 200.335 254.493 200.435 254.493 200.559V201.266C254.493 201.39 254.585 201.49 254.698 201.49Z" fill="#3F3D56"/>
<path d="M251.184 201.49H252.532C252.645 201.49 252.736 201.39 252.736 201.266V200.559C252.736 200.435 252.645 200.335 252.532 200.335H251.184C251.071 200.335 250.98 200.435 250.98 200.559V201.266C250.98 201.39 251.071 201.49 251.184 201.49Z" fill="#3F3D56"/>
<path d="M247.671 201.49H249.018C249.131 201.49 249.223 201.39 249.223 201.266V200.559C249.223 200.435 249.131 200.335 249.018 200.335H247.671C247.558 200.335 247.466 200.435 247.466 200.559V201.266C247.466 201.39 247.558 201.49 247.671 201.49Z" fill="#3F3D56"/>
<path d="M244.158 201.49H245.505C245.618 201.49 245.71 201.39 245.71 201.266V200.559C245.71 200.435 245.618 200.335 245.505 200.335H244.158C244.045 200.335 243.953 200.435 243.953 200.559V201.266C243.953 201.39 244.045 201.49 244.158 201.49Z" fill="#3F3D56"/>
<path d="M240.644 201.49H241.992C242.105 201.49 242.196 201.39 242.196 201.266V200.559C242.196 200.435 242.105 200.335 241.992 200.335H240.644C240.531 200.335 240.44 200.435 240.44 200.559V201.266C240.44 201.39 240.531 201.49 240.644 201.49Z" fill="#3F3D56"/>
<path d="M237.131 201.49H238.478C238.591 201.49 238.683 201.39 238.683 201.266V200.559C238.683 200.435 238.591 200.335 238.478 200.335H237.131C237.018 200.335 236.926 200.435 236.926 200.559V201.266C236.926 201.39 237.018 201.49 237.131 201.49Z" fill="#3F3D56"/>
<path d="M233.618 201.49H234.965C235.078 201.49 235.17 201.39 235.17 201.266V200.559C235.17 200.435 235.078 200.335 234.965 200.335H233.618C233.505 200.335 233.413 200.435 233.413 200.559V201.266C233.413 201.39 233.505 201.49 233.618 201.49Z" fill="#3F3D56"/>
<path d="M230.104 201.49H231.451C231.565 201.49 231.656 201.39 231.656 201.266V200.559C231.656 200.435 231.565 200.335 231.451 200.335H230.104C229.991 200.335 229.9 200.435 229.9 200.559V201.266C229.9 201.39 229.991 201.49 230.104 201.49Z" fill="#3F3D56"/>
<path d="M226.591 201.49H227.938C228.051 201.49 228.143 201.39 228.143 201.266V200.559C228.143 200.435 228.051 200.335 227.938 200.335H226.591C226.478 200.335 226.386 200.435 226.386 200.559V201.266C226.386 201.39 226.478 201.49 226.591 201.49Z" fill="#3F3D56"/>
<path d="M223.077 201.49H224.424C224.537 201.49 224.629 201.39 224.629 201.266V200.559C224.629 200.435 224.537 200.335 224.424 200.335H223.077C222.964 200.335 222.872 200.435 222.872 200.559V201.266C222.872 201.39 222.964 201.49 223.077 201.49Z" fill="#3F3D56"/>
<path d="M219.564 201.49H220.911C221.025 201.49 221.116 201.39 221.116 201.266V200.559C221.116 200.435 221.025 200.335 220.911 200.335H219.564C219.451 200.335 219.36 200.435 219.36 200.559V201.266C219.36 201.39 219.451 201.49 219.564 201.49Z" fill="#3F3D56"/>
<path d="M216.051 201.49H217.398C217.511 201.49 217.603 201.39 217.603 201.266V200.559C217.603 200.435 217.511 200.335 217.398 200.335H216.051C215.938 200.335 215.846 200.435 215.846 200.559V201.266C215.846 201.39 215.938 201.49 216.051 201.49Z" fill="#3F3D56"/>
<path d="M212.537 201.49H213.884C213.997 201.49 214.089 201.39 214.089 201.266V200.559C214.089 200.435 213.997 200.335 213.884 200.335H212.537C212.424 200.335 212.332 200.435 212.332 200.559V201.266C212.332 201.39 212.424 201.49 212.537 201.49Z" fill="#3F3D56"/>
<path d="M209.024 201.49H210.371C210.484 201.49 210.576 201.39 210.576 201.266V200.559C210.576 200.435 210.484 200.335 210.371 200.335H209.024C208.911 200.335 208.819 200.435 208.819 200.559V201.266C208.819 201.39 208.911 201.49 209.024 201.49Z" fill="#3F3D56"/>
<path d="M232.563 203.8H246.207C246.32 203.8 246.412 203.699 246.412 203.575V202.869C246.412 202.745 246.32 202.645 246.207 202.645H232.563C232.45 202.645 232.359 202.745 232.359 202.869V203.575C232.359 203.699 232.45 203.8 232.563 203.8Z" fill="#3F3D56"/>
<path d="M218.108 164.869H216.915C216.554 164.869 216.261 165.191 216.261 165.587C216.261 165.983 216.554 166.304 216.915 166.304H218.108C218.47 166.304 218.763 165.983 218.763 165.587C218.763 165.191 218.47 164.869 218.108 164.869Z" fill="white"/>
<path d="M231.749 164.869H230.556C230.195 164.869 229.901 165.191 229.901 165.587C229.901 165.983 230.195 166.304 230.556 166.304H231.749C232.11 166.304 232.404 165.983 232.404 165.587C232.404 165.191 232.11 164.869 231.749 164.869Z" fill="white"/>
<path d="M235.613 164.869H234.42C234.059 164.869 233.766 165.191 233.766 165.587C233.766 165.983 234.059 166.304 234.42 166.304H235.613C235.975 166.304 236.268 165.983 236.268 165.587C236.268 165.191 235.975 164.869 235.613 164.869Z" fill="white"/>
<path d="M228.038 164.75H220.625C220.264 164.75 219.971 165.071 219.971 165.467C219.971 165.864 220.264 166.185 220.625 166.185H228.038C228.4 166.185 228.693 165.864 228.693 165.467C228.693 165.071 228.4 164.75 228.038 164.75Z" fill="white"/>
<path d="M246.226 164.75H238.813C238.451 164.75 238.158 165.071 238.158 165.467C238.158 165.864 238.451 166.185 238.813 166.185H246.226C246.587 166.185 246.88 165.864 246.88 165.467C246.88 165.071 246.587 164.75 246.226 164.75Z" fill="white"/>
<path d="M221.746 168.108H220.553C220.192 168.108 219.898 168.429 219.898 168.825C219.898 169.222 220.192 169.543 220.553 169.543H221.746C222.107 169.543 222.401 169.222 222.401 168.825C222.401 168.429 222.107 168.108 221.746 168.108Z" fill="white"/>
<path d="M235.386 168.108H234.194C233.832 168.108 233.539 168.429 233.539 168.825C233.539 169.222 233.832 169.543 234.194 169.543H235.386C235.748 169.543 236.041 169.222 236.041 168.825C236.041 168.429 235.748 168.108 235.386 168.108Z" fill="white"/>
<path d="M239.251 168.108H238.058C237.696 168.108 237.403 168.429 237.403 168.825C237.403 169.222 237.696 169.543 238.058 169.543H239.251C239.612 169.543 239.905 169.222 239.905 168.825C239.905 168.429 239.612 168.108 239.251 168.108Z" fill="white"/>
<path d="M231.676 167.988H224.263C223.902 167.988 223.608 168.31 223.608 168.706C223.608 169.102 223.902 169.423 224.263 169.423H231.676C232.037 169.423 232.331 169.102 232.331 168.706C232.331 168.31 232.037 167.988 231.676 167.988Z" fill="white"/>
<path d="M249.863 167.988H242.451C242.089 167.988 241.796 168.31 241.796 168.706C241.796 169.102 242.089 169.423 242.451 169.423H249.863C250.225 169.423 250.518 169.102 250.518 168.706C250.518 168.31 250.225 167.988 249.863 167.988Z" fill="white"/>
<path d="M225.383 171.347H224.19C223.828 171.347 223.535 171.668 223.535 172.064C223.535 172.46 223.828 172.782 224.19 172.782H225.383C225.744 172.782 226.037 172.46 226.037 172.064C226.037 171.668 225.744 171.347 225.383 171.347Z" fill="white"/>
<path d="M239.023 171.347H237.83C237.469 171.347 237.176 171.668 237.176 172.064C237.176 172.46 237.469 172.782 237.83 172.782H239.023C239.385 172.782 239.678 172.46 239.678 172.064C239.678 171.668 239.385 171.347 239.023 171.347Z" fill="white"/>
<path d="M242.888 171.347H241.696C241.334 171.347 241.041 171.668 241.041 172.064C241.041 172.46 241.334 172.782 241.696 172.782H242.888C243.25 172.782 243.543 172.46 243.543 172.064C243.543 171.668 243.25 171.347 242.888 171.347Z" fill="white"/>
<path d="M235.313 171.227H227.901C227.539 171.227 227.246 171.548 227.246 171.944C227.246 172.34 227.539 172.662 227.901 172.662H235.313C235.675 172.662 235.968 172.34 235.968 171.944C235.968 171.548 235.675 171.227 235.313 171.227Z" fill="white"/>
<path d="M253.501 171.227H246.088C245.727 171.227 245.434 171.548 245.434 171.944C245.434 172.34 245.727 172.662 246.088 172.662H253.501C253.863 172.662 254.156 172.34 254.156 171.944C254.156 171.548 253.863 171.227 253.501 171.227Z" fill="white"/>
<path d="M229.02 174.585H227.828C227.466 174.585 227.173 174.906 227.173 175.302C227.173 175.699 227.466 176.02 227.828 176.02H229.02C229.382 176.02 229.675 175.699 229.675 175.302C229.675 174.906 229.382 174.585 229.02 174.585Z" fill="white"/>
<path d="M242.661 174.585H241.468C241.107 174.585 240.813 174.906 240.813 175.302C240.813 175.699 241.107 176.02 241.468 176.02H242.661C243.022 176.02 243.316 175.699 243.316 175.302C243.316 174.906 243.022 174.585 242.661 174.585Z" fill="white"/>
<path d="M246.526 174.585H245.333C244.972 174.585 244.679 174.906 244.679 175.302C244.679 175.699 244.972 176.02 245.333 176.02H246.526C246.888 176.02 247.181 175.699 247.181 175.302C247.181 174.906 246.888 174.585 246.526 174.585Z" fill="white"/>
<path d="M238.951 174.466H231.539C231.177 174.466 230.884 174.787 230.884 175.183C230.884 175.579 231.177 175.9 231.539 175.9H238.951C239.313 175.9 239.606 175.579 239.606 175.183C239.606 174.787 239.313 174.466 238.951 174.466Z" fill="white"/>
<path d="M231.749 187.463H230.556C230.195 187.463 229.901 187.784 229.901 188.18C229.901 188.577 230.195 188.898 230.556 188.898H231.749C232.11 188.898 232.404 188.577 232.404 188.18C232.404 187.784 232.11 187.463 231.749 187.463Z" fill="white"/>
<path d="M235.613 187.463H234.42C234.059 187.463 233.766 187.784 233.766 188.18C233.766 188.577 234.059 188.898 234.42 188.898H235.613C235.975 188.898 236.268 188.577 236.268 188.18C236.268 187.784 235.975 187.463 235.613 187.463Z" fill="white"/>
<path d="M246.226 187.583H238.813C238.451 187.583 238.158 187.904 238.158 188.3C238.158 188.696 238.451 189.017 238.813 189.017H246.226C246.587 189.017 246.88 188.696 246.88 188.3C246.88 187.904 246.587 187.583 246.226 187.583Z" fill="white"/>
<path d="M218.108 187.463H216.915C216.554 187.463 216.261 187.784 216.261 188.18C216.261 188.577 216.554 188.898 216.915 188.898H218.108C218.47 188.898 218.763 188.577 218.763 188.18C218.763 187.784 218.47 187.463 218.108 187.463Z" fill="white"/>
<path d="M228.038 187.583H220.625C220.264 187.583 219.971 187.904 219.971 188.3C219.971 188.696 220.264 189.017 220.625 189.017H228.038C228.4 189.017 228.693 188.696 228.693 188.3C228.693 187.904 228.4 187.583 228.038 187.583Z" fill="white"/>
<path d="M221.746 184.224H220.553C220.192 184.224 219.898 184.546 219.898 184.942C219.898 185.338 220.192 185.659 220.553 185.659H221.746C222.107 185.659 222.401 185.338 222.401 184.942C222.401 184.546 222.107 184.224 221.746 184.224Z" fill="white"/>
<path d="M235.386 184.224H234.194C233.832 184.224 233.539 184.546 233.539 184.942C233.539 185.338 233.832 185.659 234.194 185.659H235.386C235.748 185.659 236.041 185.338 236.041 184.942C236.041 184.546 235.748 184.224 235.386 184.224Z" fill="white"/>
<path d="M239.251 184.224H238.058C237.696 184.224 237.403 184.546 237.403 184.942C237.403 185.338 237.696 185.659 238.058 185.659H239.251C239.612 185.659 239.905 185.338 239.905 184.942C239.905 184.546 239.612 184.224 239.251 184.224Z" fill="white"/>
<path d="M231.676 184.344H224.263C223.902 184.344 223.608 184.665 223.608 185.061C223.608 185.458 223.902 185.779 224.263 185.779H231.676C232.037 185.779 232.331 185.458 232.331 185.061C232.331 184.665 232.037 184.344 231.676 184.344Z" fill="white"/>
<path d="M225.383 180.986H224.19C223.828 180.986 223.535 181.307 223.535 181.703C223.535 182.1 223.828 182.421 224.19 182.421H225.383C225.744 182.421 226.037 182.1 226.037 181.703C226.037 181.307 225.744 180.986 225.383 180.986Z" fill="white"/>
<path d="M239.023 180.986H237.83C237.469 180.986 237.176 181.307 237.176 181.703C237.176 182.1 237.469 182.421 237.83 182.421H239.023C239.385 182.421 239.678 182.1 239.678 181.703C239.678 181.307 239.385 180.986 239.023 180.986Z" fill="white"/>
<path d="M242.888 180.986H241.696C241.334 180.986 241.041 181.307 241.041 181.703C241.041 182.1 241.334 182.421 241.696 182.421H242.888C243.25 182.421 243.543 182.1 243.543 181.703C243.543 181.307 243.25 180.986 242.888 180.986Z" fill="white"/>
<path d="M235.313 181.105H227.901C227.539 181.105 227.246 181.427 227.246 181.823C227.246 182.219 227.539 182.54 227.901 182.54H235.313C235.675 182.54 235.968 182.219 235.968 181.823C235.968 181.427 235.675 181.105 235.313 181.105Z" fill="white"/>
<path d="M229.02 177.747H227.828C227.466 177.747 227.173 178.069 227.173 178.465C227.173 178.861 227.466 179.182 227.828 179.182H229.02C229.382 179.182 229.675 178.861 229.675 178.465C229.675 178.069 229.382 177.747 229.02 177.747Z" fill="white"/>
<path d="M242.661 177.747H241.468C241.107 177.747 240.813 178.069 240.813 178.465C240.813 178.861 241.107 179.182 241.468 179.182H242.661C243.022 179.182 243.316 178.861 243.316 178.465C243.316 178.069 243.022 177.747 242.661 177.747Z" fill="white"/>
<path d="M246.526 177.747H245.333C244.972 177.747 244.679 178.069 244.679 178.465C244.679 178.861 244.972 179.182 245.333 179.182H246.526C246.888 179.182 247.181 178.861 247.181 178.465C247.181 178.069 246.888 177.747 246.526 177.747Z" fill="white"/>
<path d="M238.951 177.867H231.539C231.177 177.867 230.884 178.188 230.884 178.584C230.884 178.981 231.177 179.302 231.539 179.302H238.951C239.313 179.302 239.606 178.981 239.606 178.584C239.606 178.188 239.313 177.867 238.951 177.867Z" fill="white"/>
<path d="M211.767 225.417L206.168 215.719L223.742 200.368L230.996 191.562C231.938 190.418 233.138 189.565 234.476 189.088C235.813 188.611 237.242 188.527 238.618 188.845C239.994 189.163 241.27 189.871 242.319 190.898C243.367 191.925 244.151 193.236 244.592 194.7C245.246 196.868 245.106 199.23 244.2 201.288C243.295 203.345 241.695 204.936 239.74 205.726L228.269 210.356L211.767 225.417Z" fill="#FFB6B6"/>
<path d="M80.3965 155.1V202.235H110.531V155.1C110.532 154.761 110.433 154.431 110.249 154.158C110.066 153.885 109.807 153.684 109.512 153.584C109.373 153.533 109.227 153.509 109.08 153.51H81.8518C81.661 153.51 81.4719 153.551 81.2954 153.63C81.119 153.71 80.9586 153.827 80.8234 153.975C80.6882 154.123 80.581 154.298 80.5077 154.491C80.4345 154.684 80.3967 154.891 80.3965 155.1ZM92.1567 171.296C92.1646 170.367 92.507 169.479 93.1094 168.825C93.7118 168.171 94.5256 167.804 95.3736 167.804C96.2216 167.804 97.0354 168.171 97.6378 168.825C98.2402 169.479 98.5826 170.367 98.5905 171.296V176.765C98.5861 177.697 98.2453 178.589 97.6425 179.246C97.0397 179.903 96.2239 180.272 95.3736 180.272C94.5233 180.272 93.7075 179.903 93.1047 179.246C92.5019 178.589 92.1611 177.697 92.1567 176.765V171.296Z" fill="#2F2E41"/>
<path d="M80.3047 200.728V205.273C80.3054 205.509 80.3907 205.734 80.5423 205.901C80.6938 206.068 80.8993 206.163 81.1141 206.165H109.814C110.029 206.164 110.235 206.069 110.387 205.902C110.539 205.735 110.624 205.509 110.624 205.273V200.728H80.3047Z" fill="#3F3D56"/>
<path d="M32.9912 84.0857V170.147C32.992 171.244 33.3899 172.296 34.0977 173.071C34.8054 173.847 35.765 174.283 36.7659 174.283H153.152C154.153 174.283 155.113 173.847 155.82 173.071C156.528 172.296 156.926 171.244 156.927 170.147V84.0857C156.924 82.99 156.526 81.9399 155.818 81.1655C155.111 80.3911 154.152 79.9555 153.152 79.9541H36.7659C35.7659 79.9555 34.8072 80.3911 34.0997 81.1655C33.3922 81.9399 32.9936 82.99 32.9912 84.0857Z" fill="#3F3D56"/>
<path d="M35.7207 85.1566V169.086C35.7216 169.672 35.9345 170.233 36.3126 170.648C36.6907 171.062 37.2033 171.295 37.7381 171.296H152.182C152.717 171.295 153.23 171.062 153.608 170.648C153.986 170.233 154.199 169.672 154.2 169.086V85.1566C154.2 84.5699 153.987 84.0072 153.609 83.5919C153.231 83.1766 152.718 82.9427 152.182 82.9414H37.7381C37.2027 82.9427 36.6896 83.1766 36.3114 83.5919C35.9332 84.0072 35.7208 84.5699 35.7207 85.1566Z" fill="white"/>
<path d="M56.9604 205.857C57.0769 206.017 57.225 206.146 57.3935 206.234C57.562 206.323 57.7466 206.368 57.9334 206.367H126.02C126.207 206.367 126.39 206.321 126.558 206.233C126.727 206.145 126.875 206.017 126.992 205.859C127.109 205.7 127.193 205.515 127.237 205.317C127.28 205.119 127.283 204.912 127.245 204.712L126.188 199.211C126.144 198.987 126.05 198.778 125.914 198.604C125.778 198.43 125.604 198.296 125.408 198.214C125.266 198.153 125.116 198.122 124.964 198.122H58.9862C58.834 198.122 58.6832 198.153 58.5416 198.214C58.346 198.296 58.1721 198.43 58.0358 198.604C57.8996 198.778 57.8053 198.987 57.7615 199.211L56.7046 204.712C56.667 204.912 56.6704 205.118 56.7147 205.316C56.7589 205.514 56.8429 205.699 56.9604 205.857Z" fill="#2F2E41"/>
<path d="M148.468 94.5029H41.3833C41.272 94.5001 41.1661 94.4498 41.0882 94.3626C41.0104 94.2754 40.9668 94.1582 40.9668 94.0362C40.9668 93.9142 41.0104 93.7971 41.0882 93.7099C41.1661 93.6226 41.272 93.5723 41.3833 93.5696H148.468C148.58 93.5723 148.686 93.6226 148.763 93.7099C148.841 93.7971 148.885 93.9142 148.885 94.0362C148.885 94.1582 148.841 94.2754 148.763 94.3626C148.686 94.4498 148.58 94.5001 148.468 94.5029Z" fill="#3F3D56"/>
<path d="M48.6734 91.187C50.0517 91.187 51.1691 89.9354 51.1691 88.3914C51.1691 86.8474 50.0517 85.5957 48.6734 85.5957C47.2951 85.5957 46.1777 86.8474 46.1777 88.3914C46.1777 89.9354 47.2951 91.187 48.6734 91.187Z" fill="#3F3D56"/>
<path d="M57.2945 91.187C58.6728 91.187 59.7902 89.9354 59.7902 88.3914C59.7902 86.8474 58.6728 85.5957 57.2945 85.5957C55.9162 85.5957 54.7988 86.8474 54.7988 88.3914C54.7988 89.9354 55.9162 91.187 57.2945 91.187Z" fill="#3F3D56"/>
<path d="M65.9156 91.187C67.2939 91.187 68.4113 89.9354 68.4113 88.3914C68.4113 86.8474 67.2939 85.5957 65.9156 85.5957C64.5373 85.5957 63.4199 86.8474 63.4199 88.3914C63.4199 89.9354 64.5373 91.187 65.9156 91.187Z" fill="#3F3D56"/>
<path d="M143.277 86.2871H137.154C137.033 86.2902 136.918 86.3451 136.833 86.44C136.749 86.5349 136.701 86.6623 136.701 86.7949C136.701 86.9276 136.749 87.055 136.833 87.1499C136.918 87.2448 137.033 87.2997 137.154 87.3028H143.277C143.399 87.3009 143.515 87.2466 143.601 87.1515C143.686 87.0565 143.734 86.9284 143.734 86.7949C143.734 86.6615 143.686 86.5334 143.601 86.4384C143.515 86.3433 143.399 86.289 143.277 86.2871Z" fill="#3F3D56"/>
<path d="M143.277 88.1943H137.154C137.032 88.1973 136.917 88.2521 136.832 88.347C136.748 88.4419 136.7 88.5694 136.7 88.7022C136.7 88.835 136.748 88.9625 136.832 89.0574C136.917 89.1523 137.032 89.2071 137.154 89.21H143.277C143.399 89.2084 143.515 89.1542 143.601 89.0591C143.687 88.9641 143.735 88.8358 143.735 88.7022C143.735 88.5685 143.687 88.4403 143.601 88.3452C143.515 88.2502 143.399 88.1959 143.277 88.1943Z" fill="#3F3D56"/>
<path d="M143.277 90.1016H137.154C137.033 90.1047 136.918 90.1595 136.833 90.2544C136.749 90.3493 136.701 90.4767 136.701 90.6094C136.701 90.7421 136.749 90.8695 136.833 90.9644C136.918 91.0593 137.033 91.1141 137.154 91.1172H143.277C143.399 91.1154 143.515 91.061 143.601 90.966C143.686 90.871 143.734 90.7429 143.734 90.6094C143.734 90.4759 143.686 90.3478 143.601 90.2528C143.515 90.1578 143.399 90.1034 143.277 90.1016Z" fill="#3F3D56"/>
<path d="M290.901 202.723C291.086 203.312 291.437 203.822 291.902 204.18C292.368 204.538 292.926 204.724 293.495 204.713L304.605 204.4C305.178 204.388 305.732 204.173 306.184 203.787C306.637 203.401 306.963 202.865 307.114 202.26L308.686 183.836C309.244 184.113 309.851 184.25 310.464 184.236C310.996 184.222 311.52 184.092 312.006 183.856C312.492 183.619 312.931 183.28 313.298 182.857C313.665 182.435 313.952 181.937 314.143 181.393C314.335 180.849 314.426 180.269 314.413 179.686C314.399 179.103 314.281 178.529 314.065 177.996C313.85 177.463 313.54 176.982 313.154 176.58C312.769 176.178 312.315 175.864 311.818 175.654C311.322 175.444 310.792 175.344 310.26 175.359C310.016 175.358 309.771 175.386 309.532 175.442C309.272 175.133 308.955 174.888 308.603 174.721C308.251 174.555 307.871 174.471 307.488 174.475L290.397 174.959C290.255 174.965 290.114 174.984 289.975 175.016C289.6 175.093 289.245 175.256 288.933 175.496C288.62 175.736 288.359 176.046 288.165 176.406C287.971 176.766 287.85 177.167 287.81 177.583C287.77 177.998 287.811 178.418 287.931 178.815L290.901 202.723ZM309.009 182.585L310.127 178.195C310.255 177.688 310.258 177.153 310.136 176.644C310.19 176.644 310.238 176.616 310.292 176.616C311.06 176.598 311.802 176.915 312.356 177.496C312.911 178.077 313.232 178.876 313.25 179.716C313.268 180.557 312.981 181.371 312.452 181.98C311.923 182.589 311.195 182.944 310.428 182.966C309.932 182.983 309.441 182.851 309.009 182.585Z" fill="#2F2E41"/>
<path d="M289.975 175.016C290.339 177.298 294.433 178.902 299.355 178.623C303.882 178.394 307.583 176.653 308.261 174.588C308.01 174.507 307.749 174.469 307.487 174.475L290.396 174.959C290.254 174.965 290.113 174.984 289.975 175.016Z" fill="#3F3D56"/>
<path d="M300.257 192.599C300.28 192.593 300.301 192.582 300.321 192.568L302.733 190.838C302.763 190.817 302.787 190.788 302.803 190.755C302.82 190.721 302.829 190.684 302.829 190.646C302.829 190.607 302.82 190.57 302.803 190.536C302.787 190.503 302.763 190.474 302.734 190.453L300.226 188.653C300.203 188.637 300.177 188.625 300.15 188.619C300.123 188.614 300.095 188.614 300.068 188.62C300.041 188.626 300.015 188.638 299.992 188.655C299.969 188.672 299.95 188.694 299.935 188.719C299.92 188.744 299.909 188.773 299.904 188.802C299.899 188.832 299.899 188.863 299.905 188.892C299.911 188.922 299.922 188.95 299.937 188.975C299.953 189 299.973 189.021 299.996 189.038L302.236 190.645L300.091 192.184C300.049 192.214 300.019 192.259 300.005 192.311C299.991 192.363 299.994 192.419 300.014 192.469C300.034 192.518 300.069 192.559 300.114 192.583C300.158 192.606 300.209 192.612 300.257 192.599Z" fill="#2558A3"/>
<path d="M296.447 192.791C296.487 192.78 296.524 192.756 296.552 192.722C296.579 192.688 296.597 192.645 296.603 192.6C296.609 192.555 296.602 192.508 296.583 192.467C296.565 192.426 296.536 192.392 296.5 192.369L294.275 190.972L296.425 189.222C296.447 189.204 296.466 189.182 296.48 189.156C296.494 189.13 296.503 189.101 296.507 189.071C296.512 189.042 296.51 189.011 296.503 188.982C296.497 188.953 296.485 188.925 296.468 188.901C296.452 188.877 296.431 188.856 296.408 188.841C296.384 188.825 296.358 188.815 296.331 188.811C296.304 188.806 296.276 188.808 296.249 188.815C296.222 188.823 296.197 188.836 296.175 188.854L293.768 190.813C293.74 190.835 293.718 190.865 293.703 190.9C293.689 190.935 293.682 190.973 293.684 191.011C293.686 191.049 293.697 191.086 293.715 191.118C293.733 191.15 293.759 191.177 293.789 191.196L296.291 192.768C296.338 192.798 296.394 192.806 296.447 192.791Z" fill="#2558A3"/>
<path d="M300.018 194.116C300.038 194.11 300.057 194.101 300.075 194.089C300.099 194.073 300.119 194.053 300.135 194.028C300.152 194.004 300.163 193.976 300.17 193.947C300.176 193.918 300.178 193.887 300.173 193.857C300.169 193.828 300.16 193.799 300.145 193.773L296.725 187.611C296.696 187.559 296.649 187.522 296.595 187.507C296.541 187.493 296.484 187.503 296.437 187.535C296.389 187.566 296.355 187.617 296.342 187.676C296.329 187.736 296.338 187.798 296.366 187.85L299.787 194.012C299.81 194.054 299.845 194.087 299.887 194.106C299.928 194.124 299.974 194.128 300.018 194.116Z" fill="#2558A3"/>
<path d="M107.721 119.872H89.1874C88.4313 119.872 87.8184 120.543 87.8184 121.372V123.356C87.8184 124.185 88.4313 124.856 89.1874 124.856H107.721C108.478 124.856 109.09 124.185 109.09 123.356V121.372C109.09 120.543 108.478 119.872 107.721 119.872Z" fill="#2558A3"/>
<path d="M118.524 129.841H78.3837C77.6276 129.841 77.0146 130.512 77.0146 131.341V133.325C77.0146 134.154 77.6276 134.825 78.3837 134.825H118.524C119.281 134.825 119.894 134.154 119.894 133.325V131.341C119.894 130.512 119.281 129.841 118.524 129.841Z" fill="#E6E6E6"/>
<path d="M118.524 139.81H78.3837C77.6276 139.81 77.0146 140.481 77.0146 141.31V143.294C77.0146 144.123 77.6276 144.794 78.3837 144.794H118.524C119.281 144.794 119.894 144.123 119.894 143.294V141.31C119.894 140.481 119.281 139.81 118.524 139.81Z" fill="#E6E6E6"/>
<path d="M121.927 173.192L122.018 173.507L122.022 173.517L124.759 182.634L127.907 193.141L133.831 212.885L133.888 215.952V215.963L134.328 240.635L133.108 243.98L134.481 249.464C134.481 249.464 133.85 241.174 130.462 245.935C128.544 248.64 126.3 251.408 124.458 254.003C127.142 255.194 129.869 256.27 132.639 257.233C133.237 257.443 133.84 257.642 134.443 257.841C134.572 257.883 134.701 257.925 134.831 257.967C144.013 260.943 153.507 262.615 163.078 262.942C163.576 262.958 164.064 262.969 164.537 262.979C164.705 262.984 164.868 262.99 165.03 262.99C165.566 262.995 166.097 263 166.633 263C167.714 263 168.791 262.983 169.863 262.948C177.795 262.703 185.681 261.534 193.388 259.461C193.335 255.975 193.192 251.901 192.986 247.55C192.89 245.416 190.742 243.104 190.613 240.87C190.522 239.193 192.45 237.615 192.35 235.911C191.699 225.42 190.886 229.447 190.283 222.018C190.221 221.289 190.163 220.592 190.11 219.926C189.723 215.155 189.455 212.172 189.455 212.172L192.029 194.394L196.072 166.481L195.761 165.92L195.412 165.732L174.087 154.166L172.929 150.915C172.592 149.979 172.007 149.175 171.249 148.606C170.491 148.037 169.595 147.729 168.676 147.723L154.629 147.66C153.9 147.656 153.18 147.843 152.531 148.205C151.881 148.567 151.319 149.094 150.892 149.741L147.088 155.513L121.927 173.192Z" fill="#3F3D56"/>
<path d="M137.07 208.492L133.888 215.952L131.716 221.048L127.979 242.486L126.108 244.662L124.506 236.959L107.73 241.041C107.18 237.691 107.583 241.154 107.243 237.479C107.339 237.374 107.439 237.269 107.54 237.164C107.808 236.892 108.033 236.635 108.028 236.388C107.836 223.711 108.411 202.137 113.205 189.067C113.955 186.933 114.945 184.91 116.152 183.043C116.248 182.902 116.338 182.76 116.429 182.619C118.64 179.226 120.037 175.887 122.018 173.512V173.507C122.03 173.496 122.041 173.483 122.051 173.47C122.058 173.466 122.065 173.461 122.07 173.454L135.677 165.548L136.261 183.52L136.677 196.439L137.07 208.492Z" fill="#3F3D56"/>
<path d="M186.135 210.611L190.109 219.929L191.496 223.174L195.232 244.609L197.096 246.78L198.703 239.079L199.458 238.91L213.071 235.82L217.039 249.629C217.933 247.996 218.286 246.075 218.036 244.19C217.787 242.306 216.952 240.573 215.671 239.286C215.4 239.017 215.175 238.756 215.181 238.508C215.407 223.598 214.574 196.372 207.058 185.166C204.671 181.61 203.239 178.068 201.155 175.594C201.148 175.587 201.148 175.58 201.142 175.58L196.071 166.481L195.761 165.922L195.413 165.731L186.135 210.611Z" fill="#3F3D56"/>
<path d="M162.058 143.279C172.379 143.279 180.746 134.111 180.746 122.801C180.746 111.491 172.379 102.323 162.058 102.323C151.737 102.323 143.37 111.491 143.37 122.801C143.37 134.111 151.737 143.279 162.058 143.279Z" fill="#FFB6B6"/>
<path d="M187.318 108.497C187.173 108.327 186.999 108.191 186.805 108.097C186.611 108.003 186.402 107.953 186.19 107.95L186.471 107.095C186.563 106.826 186.587 106.535 186.543 106.252C186.498 105.968 186.385 105.703 186.216 105.483C186.047 105.264 185.828 105.097 185.581 105.001C185.334 104.904 185.068 104.882 184.81 104.935L183.787 105.151L183.883 104.402C183.92 104.123 183.89 103.838 183.796 103.576C183.703 103.313 183.548 103.082 183.348 102.905C183.148 102.728 182.909 102.611 182.655 102.565C182.401 102.52 182.141 102.548 181.899 102.646C181.68 102.741 181.444 102.781 181.209 102.762C180.974 102.744 180.745 102.668 180.541 102.541C180.335 102.417 180.156 102.245 180.017 102.038C179.878 101.831 179.782 101.593 179.735 101.341L179.379 99.4568L179.341 99.3557C177.605 96.1846 174.266 93.8775 170.181 93.0318C166.545 92.2735 162.816 92.6596 159.222 93.0226C157.796 93.1697 156.185 93.3352 154.843 94.2359C153.703 95.008 152.738 96.5522 152.935 98.1102C149.391 96.9199 145.591 99.2959 143.708 102.292C141.477 105.859 141.112 110.326 141.053 113.819C140.894 122.082 142.45 128.843 145.667 133.916C145.901 134.284 145.96 135.052 146.426 135.309L146.329 135.139C146.849 135.424 147.378 135.883 147.181 136.375C146.614 137.791 150.377 140.92 153.027 141.954C157.863 143.843 164.293 143.682 168.814 143.002L168.973 141.83C170.605 141.587 171.754 141.123 172.077 140.396C172.647 139.863 173.134 139.385 173.557 138.944L173.562 138.94C173.57 138.93 173.587 138.917 173.595 138.907C175.638 136.761 176.112 135.539 176.325 133.677C176.531 131.853 176.166 130.001 175.793 128.332C183.653 129.665 172.698 119.159 180.02 117.128C180.104 117.099 180.19 117.076 180.276 117.059C180.49 117.004 180.704 116.949 180.91 116.884C181.9 116.59 182.849 116.146 183.728 115.565C185.775 114.2 186.45 112.389 187.507 110.349C187.659 110.058 187.723 109.722 187.689 109.389C187.655 109.056 187.525 108.743 187.318 108.497Z" fill="#2F2E41"/>
<path d="M228.156 212.069C228.151 212.873 228.143 213.999 228.11 215.391C228.105 215.584 228.101 215.782 228.097 215.984C228.042 218.544 227.988 220.69 227.9 223.076C227.896 223.241 227.891 223.402 227.883 223.567C227.766 226.895 227.581 230.769 227.262 236.904C226.671 248.238 225.639 238.462 224.603 242.438C224.553 242.635 224.498 242.87 224.448 243.146C224.291 244.146 224.027 245.123 223.66 246.055C223.11 246.413 222.544 246.758 221.986 247.103C220.397 248.072 218.782 249.005 217.155 249.892C216.24 250.389 215.322 250.876 214.399 251.344C214.252 251.418 214.11 251.492 213.967 251.56C209.242 253.955 204.372 255.992 199.393 257.655C198.42 257.976 197.451 258.289 196.469 258.578C195.446 258.891 194.423 259.185 193.387 259.461C185.68 261.534 177.794 262.703 169.862 262.949C168.792 262.986 167.715 263 166.632 263C166.096 263 165.567 262.995 165.03 262.99C164.867 262.99 164.703 262.986 164.54 262.981C164.066 262.967 163.575 262.958 163.08 262.944C153.509 262.617 144.015 260.944 134.833 257.967L134.443 257.843C133.839 257.641 133.239 257.443 132.639 257.232C129.871 256.271 127.144 255.196 124.457 254.005C122.406 253.1 120.379 252.129 118.375 251.092C118.357 251.086 118.34 251.077 118.325 251.064C117.905 250.853 117.482 250.632 117.062 250.407C117.008 250.375 116.949 250.343 116.89 250.31C115.326 249.474 113.778 248.598 112.248 247.682C110.96 244.442 109.148 243.821 108.024 240.972C107.697 240.125 107.461 239.24 107.32 238.334C107.32 238.324 107.315 238.315 107.315 238.301C107.433 240.011 106.816 235.268 107.311 238.283C107.307 238.228 107.303 238.168 107.299 238.099C107.286 237.934 107.269 237.732 107.244 237.479C105.806 222.087 105.898 204.485 105.273 189.981C105.231 189.043 105.188 188.146 105.143 187.288C105.13 187.003 105.113 186.722 105.097 186.447C105.126 186.364 105.16 186.277 105.197 186.194C105.205 186.17 105.215 186.147 105.227 186.125C105.239 186.097 105.253 186.069 105.269 186.042C105.277 186.029 105.29 186.01 105.298 185.996C105.304 185.981 105.311 185.965 105.319 185.95C105.357 185.886 105.399 185.817 105.445 185.753C105.466 185.725 105.483 185.702 105.504 185.679C105.518 185.656 105.535 185.634 105.554 185.615C105.567 185.593 105.582 185.573 105.6 185.555C105.617 185.537 105.634 185.514 105.654 185.491C105.663 185.476 105.675 185.464 105.688 185.454C105.721 185.412 105.758 185.374 105.797 185.339C105.947 185.188 106.107 185.05 106.275 184.926C106.334 184.884 106.397 184.843 106.456 184.797C106.878 184.52 107.323 184.286 107.785 184.098C107.944 184.034 108.104 183.974 108.276 183.91C108.339 183.891 108.397 183.868 108.46 183.846C108.553 183.813 108.645 183.781 108.741 183.758C109.219 183.602 109.735 183.469 110.293 183.345C110.36 183.331 110.432 183.317 110.503 183.299C110.604 183.276 110.708 183.257 110.813 183.239C110.956 183.211 111.103 183.184 111.249 183.156C112.495 182.94 113.908 182.779 115.469 182.674C115.615 182.664 115.762 182.655 115.909 182.646C116.081 182.637 116.253 182.628 116.429 182.618C116.576 182.609 116.727 182.605 116.878 182.6C117.025 182.591 117.176 182.586 117.331 182.582C117.754 182.568 118.191 182.554 118.635 182.545C119.902 182.517 121.236 182.527 122.636 182.559C123.286 182.577 123.949 182.595 124.629 182.628C124.675 182.628 124.717 182.632 124.759 182.632C125.35 182.655 125.946 182.683 126.558 182.72C126.986 182.743 127.418 182.766 127.85 182.793C128.256 182.821 128.667 182.848 129.083 182.88C129.406 182.899 129.729 182.926 130.056 182.949C130.333 182.972 130.609 182.995 130.886 183.014L131.264 183.041C131.469 183.06 131.675 183.073 131.884 183.096C132.346 183.138 132.807 183.179 133.277 183.22C133.742 183.266 134.216 183.312 134.69 183.358C135.164 183.404 135.642 183.455 136.12 183.505C136.171 183.51 136.217 183.515 136.263 183.519C136.699 183.57 137.135 183.616 137.576 183.666C137.676 183.675 137.781 183.685 137.882 183.698C138.302 183.745 138.73 183.799 139.154 183.848C139.284 183.863 139.413 183.878 139.543 183.894C139.875 183.934 140.203 183.968 140.537 184.011C140.977 184.066 141.426 184.117 141.862 184.181C142.202 184.222 142.542 184.264 142.881 184.31C143.414 184.379 143.955 184.452 144.496 184.53C144.701 184.558 144.907 184.585 145.113 184.618C146.656 184.829 148.216 185.063 149.802 185.307C152.205 185.679 154.646 186.084 157.103 186.52C159.565 186.957 162.041 187.418 164.531 187.904C165.16 188.028 165.789 188.152 166.423 188.28C166.708 188.34 166.993 188.4 167.278 188.46C167.765 188.556 168.251 188.657 168.738 188.758C169.224 188.86 169.711 188.961 170.197 189.066C170.776 189.19 171.359 189.315 171.938 189.439C175.75 190.266 179.542 191.148 183.241 192.072C183.849 192.224 184.457 192.38 185.061 192.532C186.269 192.84 187.466 193.152 188.651 193.469C188.979 193.552 189.302 193.639 189.624 193.727C190.43 193.947 191.235 194.168 192.028 194.393L192.166 194.434C192.749 194.591 193.319 194.751 193.89 194.917C195.236 195.303 196.56 195.694 197.862 196.089C198.726 196.351 199.58 196.616 200.424 196.884C201.687 197.284 202.924 197.688 204.128 198.097C204.425 198.198 204.723 198.299 205.017 198.396C205.898 198.695 206.766 198.998 207.609 199.301C208.28 199.54 208.934 199.784 209.58 200.027C210.226 200.271 210.859 200.515 211.48 200.758C211.878 200.914 212.273 201.08 212.667 201.236C213.233 201.466 213.791 201.696 214.336 201.926C214.504 201.994 214.667 202.068 214.831 202.137C214.936 202.187 215.037 202.229 215.137 202.275C215.334 202.362 215.536 202.445 215.729 202.532C215.926 202.615 216.119 202.702 216.312 202.794C216.5 202.877 216.693 202.964 216.878 203.051C217.066 203.134 217.251 203.222 217.436 203.313C217.591 203.382 217.742 203.456 217.888 203.529C218.186 203.672 218.484 203.814 218.773 203.961C218.916 204.035 219.059 204.104 219.201 204.177L219.528 204.343C219.575 204.37 219.621 204.393 219.667 204.416C219.772 204.472 219.881 204.531 219.986 204.586C220.229 204.711 220.468 204.844 220.703 204.968C221.017 205.143 221.323 205.317 221.617 205.487C221.915 205.662 222.204 205.837 222.481 206.007C222.527 206.034 222.569 206.062 222.615 206.089C222.678 206.126 222.741 206.167 222.804 206.204C223.018 206.337 223.223 206.475 223.429 206.609C223.832 206.88 224.213 207.146 224.57 207.413C224.649 207.473 224.725 207.532 224.805 207.588C225.069 207.794 225.32 207.997 225.555 208.203C225.555 208.208 225.555 208.208 225.56 208.208C225.639 208.272 225.715 208.341 225.79 208.406C225.853 208.47 225.92 208.525 225.983 208.589C226.201 208.796 226.403 208.994 226.587 209.196C226.649 209.258 226.708 209.324 226.763 209.394C226.788 209.416 226.81 209.44 226.83 209.467C226.914 209.559 226.99 209.651 227.061 209.743C227.072 209.756 227.082 209.769 227.09 209.784C227.191 209.913 227.283 210.042 227.371 210.17C227.413 210.235 227.459 210.299 227.497 210.363C227.548 210.442 227.598 210.524 227.64 210.602C227.678 210.667 227.711 210.736 227.745 210.8C227.834 210.966 227.909 211.139 227.971 211.319C228.018 211.441 228.056 211.567 228.084 211.696C228.116 211.818 228.14 211.943 228.156 212.069Z" fill="#2F2E41"/>
<path opacity="0.2" d="M228.156 212.069C228.152 212.873 228.143 213.999 228.11 215.391C228.106 215.584 228.097 215.782 228.093 215.984C228.051 217.937 227.988 220.35 227.9 223.076C227.896 223.241 227.892 223.402 227.883 223.567C227.766 226.895 227.581 230.769 227.263 236.904C226.671 248.238 225.64 238.462 224.604 242.438C221.726 240.498 218.572 238.467 215.2 236.381C214.592 236.004 213.979 235.625 213.359 235.245C206.615 231.123 199.083 226.803 191.219 222.524C190.908 222.354 190.594 222.184 190.283 222.019C172.27 212.262 152.608 202.771 136.679 196.438C133.604 195.216 130.668 194.113 127.909 193.143C122.096 191.107 117.071 189.682 113.204 189.066C109.178 188.423 106.397 188.653 105.273 189.981C105.231 189.043 105.188 188.146 105.143 187.288C105.126 187.003 105.11 186.723 105.093 186.447C105.119 186.371 105.152 186.299 105.185 186.226C105.19 186.216 105.193 186.205 105.198 186.194C105.206 186.17 105.215 186.147 105.227 186.125C105.239 186.097 105.253 186.069 105.269 186.042C105.283 186.01 105.299 185.979 105.319 185.95C105.357 185.886 105.399 185.817 105.445 185.753C105.479 185.705 105.515 185.659 105.554 185.615C105.567 185.593 105.583 185.573 105.6 185.555C105.617 185.537 105.634 185.514 105.655 185.491C105.664 185.476 105.675 185.464 105.688 185.454C105.722 185.412 105.758 185.374 105.797 185.339C105.947 185.188 106.107 185.05 106.276 184.926C106.334 184.884 106.397 184.843 106.456 184.797C106.879 184.52 107.324 184.286 107.785 184.098C107.945 184.034 108.104 183.974 108.276 183.91C108.339 183.892 108.398 183.869 108.461 183.846C108.553 183.813 108.645 183.781 108.742 183.758C109.22 183.602 109.736 183.469 110.293 183.345C110.461 183.308 110.637 183.271 110.814 183.239C110.956 183.211 111.103 183.184 111.25 183.156C112.495 182.94 113.909 182.779 115.469 182.674C115.616 182.664 115.763 182.655 115.909 182.646C116.081 182.637 116.253 182.628 116.429 182.619C116.576 182.609 116.727 182.605 116.878 182.6C117.025 182.591 117.176 182.586 117.331 182.582C117.755 182.568 118.191 182.554 118.636 182.545C119.902 182.522 121.236 182.531 122.637 182.563C123.287 182.577 123.949 182.6 124.629 182.632C124.671 182.632 124.717 182.637 124.759 182.637C125.35 182.655 125.95 182.687 126.558 182.72C126.986 182.743 127.418 182.766 127.85 182.793C128.257 182.821 128.668 182.848 129.083 182.88C129.406 182.899 129.729 182.926 130.056 182.949C130.333 182.972 130.61 182.995 130.886 183.014C131.218 183.041 131.549 183.069 131.885 183.096C132.346 183.138 132.807 183.179 133.277 183.221C133.743 183.267 134.217 183.312 134.691 183.358C135.164 183.404 135.643 183.455 136.121 183.506C136.171 183.51 136.217 183.515 136.263 183.519C136.699 183.57 137.136 183.616 137.576 183.666C140.017 183.938 142.529 184.255 145.113 184.618C146.656 184.834 148.219 185.065 149.802 185.312C152.205 185.684 154.646 186.088 157.104 186.52C159.566 186.957 162.042 187.418 164.532 187.904C165.161 188.028 165.79 188.152 166.423 188.281C167.195 188.437 167.966 188.596 168.738 188.759C169.225 188.86 169.711 188.961 170.198 189.066C170.777 189.191 171.36 189.315 171.938 189.439C175.751 190.266 179.542 191.148 183.241 192.072C183.85 192.224 184.458 192.38 185.062 192.532C186.27 192.84 187.466 193.152 188.652 193.469C188.979 193.557 189.302 193.644 189.625 193.731C190.434 193.952 191.235 194.172 192.028 194.393V194.398C192.074 194.407 192.12 194.421 192.166 194.434C192.745 194.595 193.32 194.756 193.89 194.922C195.236 195.308 196.56 195.697 197.862 196.089C198.726 196.355 199.582 196.617 200.425 196.884C201.687 197.288 202.924 197.693 204.128 198.097C204.426 198.198 204.724 198.299 205.017 198.396C205.898 198.699 206.762 199.001 207.609 199.301C208.28 199.54 208.934 199.784 209.58 200.028C210.226 200.271 210.86 200.515 211.48 200.758C211.883 200.915 212.277 201.075 212.667 201.232C213.238 201.461 213.791 201.691 214.336 201.926C214.504 201.995 214.668 202.068 214.831 202.137C215.137 202.266 215.435 202.399 215.729 202.532C215.926 202.615 216.119 202.702 216.312 202.794C216.501 202.877 216.694 202.964 216.878 203.052C217.067 203.134 217.251 203.222 217.436 203.314C217.591 203.382 217.742 203.456 217.889 203.53C218.187 203.672 218.484 203.814 218.774 203.962C218.916 204.035 219.059 204.104 219.202 204.178L219.529 204.343C219.575 204.371 219.621 204.394 219.667 204.417C220.024 204.6 220.368 204.784 220.703 204.968C221.018 205.143 221.324 205.317 221.617 205.487C221.966 205.69 222.297 205.887 222.616 206.089C222.678 206.126 222.741 206.168 222.804 206.204C223.018 206.338 223.224 206.475 223.429 206.609C223.832 206.88 224.214 207.146 224.57 207.413C224.922 207.68 225.249 207.942 225.556 208.203C225.556 208.208 225.556 208.208 225.56 208.208C225.707 208.337 225.849 208.465 225.983 208.59C226.202 208.796 226.403 208.994 226.587 209.196C226.649 209.259 226.708 209.325 226.764 209.394C226.788 209.416 226.81 209.441 226.831 209.467C226.919 209.573 227.007 209.679 227.091 209.784C227.191 209.913 227.284 210.042 227.372 210.17C227.414 210.235 227.46 210.299 227.498 210.364C227.548 210.442 227.598 210.524 227.64 210.603C227.678 210.667 227.711 210.736 227.745 210.8C227.834 210.966 227.91 211.14 227.971 211.319C228.017 211.442 228.055 211.568 228.085 211.696C228.116 211.818 228.14 211.943 228.156 212.069Z" fill="black"/>
</g>
<defs>
<clipPath id="clip0_93_3512">
<rect width="330" height="263" fill="white"/>
</clipPath>
</defs>
</svg>
